<?xml version="1.0" encoding="UTF-8" standalone="no"?>
<!DOCTYPE svg PUBLIC "-//W3C//DTD SVG 1.1//EN" "http://www.w3.org/Graphics/SVG/1.1/DTD/svg11.dtd">
<!-- Generated by Microsoft Visio, SVG Export knrm_architecture.svg Page-1 -->
<svg xmlns="http://www.w3.org/2000/svg" xmlns:xlink="http://www.w3.org/1999/xlink" xmlns:ev="http://www.w3.org/2001/xml-events"
		width="420px" height="400px" viewBox="0 0 243.774 220.141" xml:space="preserve" color-interpolation-filters="sRGB">

	<defs id="Markers">
		<g id="lend1">
			<path d="M 1 -1 L 0 0 L 1 1 " style="stroke-linecap:round;stroke-linejoin:round;fill:none"/>
		</g>
		<marker id="mrkr1-10" class="st3" orient="auto" markerUnits="strokeWidth" overflow="visible">
			<g transform="scale(-3.52,-3.52) ">
				<path d="M 1 -1 L 0 0 L 1 1 " style="stroke-linecap:round;stroke-linejoin:round;fill:none"/>
			</g>
		</marker>
		<marker id="mrkr1-66" class="st12" orient="auto" markerUnits="strokeWidth" overflow="visible">
			<g transform="scale(-3.88,-3.88) ">
				<path d="M 1 -1 L 0 0 L 1 1 " style="stroke-linecap:round;stroke-linejoin:round;fill:none"/>
			</g>
		</marker>
		<marker id="mrkr1-74" class="st15" orient="auto" markerUnits="strokeWidth" overflow="visible">
			<g transform="scale(-2.44,-2.44) ">
				<path d="M 1 -1 L 0 0 L 1 1 " style="stroke-linecap:round;stroke-linejoin:round;fill:none"/>
			</g>
		</marker>
		<marker id="mrkr1-167" class="st3" orient="auto" markerUnits="strokeWidth" overflow="visible">
			<g transform="scale(3.52) ">
				<path d="M 1 -1 L 0 0 L 1 1 " style="stroke-linecap:round;stroke-linejoin:round;fill:none"/>
			</g>
		</marker>
	</defs>
	<g>
		<title>Page-1</title>
		<g id="shape1-1" transform="translate(81.3747,-95.4966)">
			<title>Octagon.1245</title>
			<path d="M8.81 207.69 L3.65 207.69 L0 211.33 L0 216.49 L3.65 220.14 L8.81 220.14 L12.46 216.49 L12.46 211.33 L8.81 207.69
						 Z" class="st1"/>
		</g>
		<g id="shape2-3" transform="translate(79.0984,-97.7729)">
			<title>Octagon.1246</title>
			<path d="M8.81 207.69 L3.65 207.69 L0 211.33 L0 216.49 L3.65 220.14 L8.81 220.14 L12.46 216.49 L12.46 211.33 L8.81 207.69
						 Z" class="st1"/>
		</g>
		<g id="shape3-5" transform="translate(85.8048,-111.991)">
			<title>Dynamic connector.1219</title>
			<path d="M7.09 220.14 L7.09 246.38" class="st2"/>
		</g>
		<g id="shape4-11" transform="translate(84.2094,-92.6619)">
			<title>Octagon.1201</title>
			<path d="M8.81 207.69 L3.65 207.69 L0 211.33 L0 216.49 L3.65 220.14 L8.81 220.14 L12.46 216.49 L12.46 211.33 L8.81 207.69
						 Z" class="st1"/>
		</g>
		<g id="shape5-13" transform="translate(50.1851,-63.4778)">
			<title>Rounded Rectangle.1222</title>
			<path d="M2.43 220.14 L48.08 220.14 A2.42607 2.42607 -180 0 0 50.5 217.72 L50.5 202.75 A2.42607 2.42607 -180 0 0 48.08
						 200.33 L2.43 200.33 A2.42607 2.42607 -180 0 0 -0 202.75 L0 217.72 A2.42607 2.42607 -180 0 0 2.43 220.14
						 Z" class="st1"/>
		</g>
		<g id="shape6-15" transform="translate(58.9896,-55.9143)">
			<title>Rounded Rectangle.80</title>
			<path d="M2.43 220.14 L48.08 220.14 A2.42607 2.42607 -180 0 0 50.5 217.72 L50.5 202.75 A2.42607 2.42607 -180 0 0 48.08
						 200.33 L2.43 200.33 A2.42607 2.42607 -180 0 0 -0 202.75 L0 217.72 A2.42607 2.42607 -180 0 0 2.43 220.14
						 Z" class="st1"/>
		</g>
		<g id="shape7-17" transform="translate(54.4767,-60.1662)">
			<title>Rounded Rectangle.1221</title>
			<path d="M2.43 220.14 L48.08 220.14 A2.42607 2.42607 -180 0 0 50.5 217.72 L50.5 202.75 A2.42607 2.42607 -180 0 0 48.08
						 200.33 L2.43 200.33 A2.42607 2.42607 -180 0 0 -0 202.75 L0 217.72 A2.42607 2.42607 -180 0 0 2.43 220.14
						 Z" class="st1"/>
		</g>
		<g id="group8-19" transform="translate(70.9153,-152.826)">
			<title>Sheet.8</title>
			<g id="shape9-20">
				<title>Rounded Rectangle.23</title>
				<path d="M3.33 220.14 L7.37 220.14 A3.3269 3.3269 -180 0 0 10.7 216.81 L10.7 190.02 A3.3269 3.3269 -180 0 0 7.37
							 186.69 L3.33 186.69 A3.3269 3.3269 -180 0 0 0 190.02 L0 216.81 A3.3269 3.3269 -180 0 0 3.33 220.14 Z"
						class="st4"/>
			</g>
			<g id="shape10-22" transform="translate(0.954819,-23.2441)">
				<title>Circle</title>
				<path d="M0 215.75 A4.3937 4.3937 0 0 1 8.79 215.75 A4.3937 4.3937 0 1 1 0 215.75 Z" class="st5"/>
			</g>
			<g id="shape11-24" transform="translate(0.954819,-12.4016)">
				<title>Circle.25</title>
				<path d="M0 215.75 A4.3937 4.3937 0 0 1 8.79 215.75 A4.3937 4.3937 0 1 1 0 215.75 Z" class="st5"/>
			</g>
			<g id="shape12-26" transform="translate(0.954819,-1.55906)">
				<title>Circle.26</title>
				<path d="M0 215.75 A4.3937 4.3937 0 0 1 8.79 215.75 A4.3937 4.3937 0 1 1 0 215.75 Z" class="st5"/>
			</g>
		</g>
		<g id="group13-28" transform="translate(98.0906,-152.684)">
			<title>Sheet.13</title>
			<g id="shape14-29">
				<title>Rounded Rectangle.23</title>
				<path d="M3.33 220.14 L7.37 220.14 A3.3269 3.3269 -180 0 0 10.7 216.81 L10.7 190.02 A3.3269 3.3269 -180 0 0 7.37
							 186.69 L3.33 186.69 A3.3269 3.3269 -180 0 0 0 190.02 L0 216.81 A3.3269 3.3269 -180 0 0 3.33 220.14 Z"
						class="st6"/>
			</g>
			<g id="shape15-31" transform="translate(0.954819,-23.2441)">
				<title>Circle</title>
				<path d="M0 215.75 A4.3937 4.3937 0 0 1 8.79 215.75 A4.3937 4.3937 0 1 1 0 215.75 Z" class="st7"/>
			</g>
			<g id="shape16-33" transform="translate(0.954819,-12.4016)">
				<title>Circle.25</title>
				<path d="M0 215.75 A4.3937 4.3937 0 0 1 8.79 215.75 A4.3937 4.3937 0 1 1 0 215.75 Z" class="st7"/>
			</g>
			<g id="shape17-35" transform="translate(0.954819,-1.55906)">
				<title>Circle.26</title>
				<path d="M0 215.75 A4.3937 4.3937 0 0 1 8.79 215.75 A4.3937 4.3937 0 1 1 0 215.75 Z" class="st7"/>
			</g>
		</g>
		<g id="group18-37" transform="translate(57.9132,-152.826)">
			<title>Sheet.18</title>
			<g id="shape19-38">
				<title>Rounded Rectangle.23</title>
				<path d="M3.33 220.14 L7.37 220.14 A3.3269 3.3269 -180 0 0 10.7 216.81 L10.7 190.02 A3.3269 3.3269 -180 0 0 7.37
							 186.69 L3.33 186.69 A3.3269 3.3269 -180 0 0 0 190.02 L0 216.81 A3.3269 3.3269 -180 0 0 3.33 220.14 Z"
						class="st4"/>
			</g>
			<g id="shape20-40" transform="translate(0.954819,-23.2441)">
				<title>Circle</title>
				<path d="M0 215.75 A4.3937 4.3937 0 0 1 8.79 215.75 A4.3937 4.3937 0 1 1 0 215.75 Z" class="st5"/>
			</g>
			<g id="shape21-42" transform="translate(0.954819,-12.4016)">
				<title>Circle.25</title>
				<path d="M0 215.75 A4.3937 4.3937 0 0 1 8.79 215.75 A4.3937 4.3937 0 1 1 0 215.75 Z" class="st5"/>
			</g>
			<g id="shape22-44" transform="translate(0.954819,-1.55906)">
				<title>Circle.26</title>
				<path d="M0 215.75 A4.3937 4.3937 0 0 1 8.79 215.75 A4.3937 4.3937 0 1 1 0 215.75 Z" class="st5"/>
			</g>
		</g>
		<g id="shape23-46" transform="translate(268.306,-15.5439) rotate(45)">
			<title>Sheet.23</title>
			<desc>...</desc>
			<rect x="0" y="200.141" width="33.4488" height="20" class="st8"/>
			<text x="13.32" y="212.84" class="st9">...</text>		</g>
		<g id="group24-49" transform="translate(120.842,-152.684)">
			<title>Sheet.24</title>
			<g id="shape25-50">
				<title>Rounded Rectangle.23</title>
				<path d="M3.33 220.14 L7.37 220.14 A3.3269 3.3269 -180 0 0 10.7 216.81 L10.7 190.02 A3.3269 3.3269 -180 0 0 7.37
							 186.69 L3.33 186.69 A3.3269 3.3269 -180 0 0 0 190.02 L0 216.81 A3.3269 3.3269 -180 0 0 3.33 220.14 Z"
						class="st6"/>
			</g>
			<g id="shape26-52" transform="translate(0.954819,-23.2441)">
				<title>Circle</title>
				<path d="M0 215.75 A4.3937 4.3937 0 0 1 8.79 215.75 A4.3937 4.3937 0 1 1 0 215.75 Z" class="st7"/>
			</g>
			<g id="shape27-54" transform="translate(0.954819,-12.4016)">
				<title>Circle.25</title>
				<path d="M0 215.75 A4.3937 4.3937 0 0 1 8.79 215.75 A4.3937 4.3937 0 1 1 0 215.75 Z" class="st7"/>
			</g>
			<g id="shape28-56" transform="translate(0.954819,-1.55906)">
				<title>Circle.26</title>
				<path d="M0 215.75 A4.3937 4.3937 0 0 1 8.79 215.75 A4.3937 4.3937 0 1 1 0 215.75 Z" class="st7"/>
			</g>
		</g>
		<g id="shape29-58" transform="translate(-98.1237,67.4571) rotate(-90)">
			<title>Sheet.29</title>
			<desc>...</desc>
			<rect x="0" y="200.141" width="33.4488" height="20" class="st8"/>
			<text x="12.18" y="213.74" class="st10">...</text>		</g>
		<g id="shape30-61" transform="translate(174.688,-76.8203) rotate(12.0568)">
			<title>Sheet.30</title>
			<path d="M-0 220.14 A48.0688 17.5146 12.29 0 1 59.71 220.14" class="st11"/>
		</g>
		<g id="shape31-67" transform="translate(168.711,-22.3179)">
			<title>Circle.1145</title>
			<path d="M0 214.79 A5.34851 5.34851 0 1 1 10.7 214.79 A5.34851 5.34851 0 1 1 0 214.79 Z" class="st13"/>
		</g>
		<g id="shape32-69" transform="translate(118.783,-74.2576)">
			<title>Dynamic connector.1163</title>
			<path d="M2.83 225.48 L11.34 228.98" class="st14"/>
		</g>
		<g id="shape33-75" transform="translate(-97.6698,105.919) rotate(-90.1)">
			<title>Rounded Rectangle.23</title>
			<path d="M2.06 220.14 L19.65 220.14 A2.06481 2.06481 -180 0 0 21.71 218.08 L21.71 166.63 A2.06481 2.06481 -180 0 0 19.65
						 164.57 L2.06 164.57 A2.06481 2.06481 -180 0 0 0 166.63 L0 218.08 A2.06481 2.06481 -180 0 0 2.06 220.14 Z"
					class="st16"/>
		</g>
		<g id="shape34-77" transform="translate(-110.128,104.697) rotate(-90.1)">
			<title>Circle</title>
			<path d="M0 215.75 A4.3937 4.3937 0 0 1 8.79 215.75 A4.3937 4.3937 0 1 1 0 215.75 Z" class="st17"/>
		</g>
		<g id="shape35-79" transform="translate(-131.637,94.2425) rotate(-90.1)">
			<title>Circle.25</title>
			<path d="M0 215.75 A4.3937 4.3937 0 0 1 8.79 215.75 A4.3937 4.3937 0 1 1 0 215.75 Z" class="st17"/>
		</g>
		<g id="shape36-81" transform="translate(-120.834,94.2425) rotate(-90.1)">
			<title>Circle.26</title>
			<path d="M0 215.75 A4.3937 4.3937 0 0 1 8.79 215.75 A4.3937 4.3937 0 1 1 0 215.75 Z" class="st17"/>
		</g>
		<g id="shape37-83" transform="translate(-110.024,94.2425) rotate(-90.1)">
			<title>Circle.1120</title>
			<path d="M0 215.75 A4.3937 4.3937 0 0 1 8.79 215.75 A4.3937 4.3937 0 1 1 0 215.75 Z" class="st17"/>
		</g>
		<g id="shape38-85" transform="translate(-99.2138,94.2425) rotate(-90.1)">
			<title>Circle.1121</title>
			<path d="M0 215.75 A4.3937 4.3937 0 0 1 8.79 215.75 A4.3937 4.3937 0 1 1 0 215.75 Z" class="st17"/>
		</g>
		<g id="shape39-87" transform="translate(-142.735,104.697) rotate(-90.1)">
			<title>Circle.1122</title>
			<path d="M0 215.75 A4.3937 4.3937 0 0 1 8.79 215.75 A4.3937 4.3937 0 1 1 0 215.75 Z" class="st17"/>
		</g>
		<g id="shape40-89" transform="translate(-131.869,104.697) rotate(-90.1)">
			<title>Circle.1123</title>
			<path d="M0 215.75 A4.3937 4.3937 0 0 1 8.79 215.75 A4.3937 4.3937 0 1 1 0 215.75 Z" class="st17"/>
		</g>
		<g id="shape41-91" transform="translate(-120.995,104.697) rotate(-90.1)">
			<title>Circle.1124</title>
			<path d="M0 215.75 A4.3937 4.3937 0 0 1 8.79 215.75 A4.3937 4.3937 0 1 1 0 215.75 Z" class="st17"/>
		</g>
		<g id="shape42-93" transform="translate(-99.2466,104.697) rotate(-90.1)">
			<title>Circle.1125</title>
			<path d="M0 215.75 A4.3937 4.3937 0 0 1 8.79 215.75 A4.3937 4.3937 0 1 1 0 215.75 Z" class="st17"/>
		</g>
		<g id="shape43-95" transform="translate(-142.432,94.2425) rotate(-90.1)">
			<title>Circle.1126</title>
			<path d="M0 215.75 A4.3937 4.3937 0 0 1 8.79 215.75 A4.3937 4.3937 0 1 1 0 215.75 Z" class="st18"/>
		</g>
		<g id="group44-97" transform="translate(86.4857,-90.6863)">
			<title>Sheet.44</title>
			<g id="shape45-98">
				<title>Octagon.1199</title>
				<path d="M8.81 207.69 L3.65 207.69 L0 211.33 L0 216.49 L3.65 220.14 L8.81 220.14 L12.46 216.49 L12.46 211.33 L8.81
							 207.69 Z" class="st19"/>
			</g>
			<g id="shape46-100" transform="translate(0.412315,-4.1543)">
				<title>Sheet.46</title>
				<path d="M-0 220.14 A15.5212 7.5534 -89.22 0 0 3.2 217.45 A3.54331 3.54331 0 0 1 4.77 216.19 A11.8812 5.25689 90
							 0 1 6.7 216.21 A3.54331 3.54331 0 0 1 8.14 217.35 A26.5468 9.88924 -90.04 0 0 11.63 220.06"
						class="st20"/>
			</g>
			<g id="shape47-103">
				<title>Octagon.1201</title>
				<path d="M8.81 207.69 L3.65 207.69 L0 211.33 L0 216.49 L3.65 220.14 L8.81 220.14 L12.46 216.49 L12.46 211.33 L8.81
							 207.69 Z" class="st21"/>
			</g>
		</g>
		<g id="shape48-105" transform="translate(126.537,-54.1048)">
			<title>Sheet.48</title>
			<desc>Ʃ</desc>
			<rect x="0" y="204.683" width="16.9077" height="15.458" class="st8"/>
			<text x="5.29" y="215.91" class="st22">Ʃ</text>		</g>
		<g id="shape49-108" transform="translate(-101.812,168.716) rotate(-90.1)">
			<title>Rounded Rectangle.1206</title>
			<path d="M2.06 220.14 L19.65 220.14 A2.06481 2.06481 -180 0 0 21.71 218.08 L21.71 166.63 A2.06481 2.06481 -180 0 0 19.65
						 164.57 L2.06 164.57 A2.06481 2.06481 -180 0 0 0 166.63 L0 218.08 A2.06481 2.06481 -180 0 0 2.06 220.14 Z"
					class="st23"/>
		</g>
		<g id="shape50-110" transform="translate(-114.27,167.494) rotate(-90.1)">
			<title>Circle.1207</title>
			<path d="M0 215.75 A4.3937 4.3937 0 0 1 8.79 215.75 A4.3937 4.3937 0 1 1 0 215.75 Z" class="st24"/>
		</g>
		<g id="shape51-112" transform="translate(-146.596,157.04) rotate(-90.1)">
			<title>Circle.1208</title>
			<path d="M0 215.75 A4.3937 4.3937 0 0 1 8.79 215.75 A4.3937 4.3937 0 1 1 0 215.75 Z" class="st24"/>
		</g>
		<g id="shape52-114" transform="translate(-124.976,157.04) rotate(-90.1)">
			<title>Circle.1209</title>
			<path d="M0 215.75 A4.3937 4.3937 0 0 1 8.79 215.75 A4.3937 4.3937 0 1 1 0 215.75 Z" class="st24"/>
		</g>
		<g id="shape53-116" transform="translate(-114.166,157.04) rotate(-90.1)">
			<title>Circle.1210</title>
			<path d="M0 215.75 A4.3937 4.3937 0 0 1 8.79 215.75 A4.3937 4.3937 0 1 1 0 215.75 Z" class="st24"/>
		</g>
		<g id="shape54-118" transform="translate(-103.356,157.04) rotate(-90.1)">
			<title>Circle.1211</title>
			<path d="M0 215.75 A4.3937 4.3937 0 0 1 8.79 215.75 A4.3937 4.3937 0 1 1 0 215.75 Z" class="st24"/>
		</g>
		<g id="shape55-120" transform="translate(-146.877,167.494) rotate(-90.1)">
			<title>Circle.1212</title>
			<path d="M0 215.75 A4.3937 4.3937 0 0 1 8.79 215.75 A4.3937 4.3937 0 1 1 0 215.75 Z" class="st24"/>
		</g>
		<g id="shape56-122" transform="translate(-136.011,167.494) rotate(-90.1)">
			<title>Circle.1213</title>
			<path d="M0 215.75 A4.3937 4.3937 0 0 1 8.79 215.75 A4.3937 4.3937 0 1 1 0 215.75 Z" class="st24"/>
		</g>
		<g id="shape57-124" transform="translate(-125.137,167.494) rotate(-90.1)">
			<title>Circle.1214</title>
			<path d="M0 215.75 A4.3937 4.3937 0 0 1 8.79 215.75 A4.3937 4.3937 0 1 1 0 215.75 Z" class="st24"/>
		</g>
		<g id="shape58-126" transform="translate(-103.388,167.494) rotate(-90.1)">
			<title>Circle.1215</title>
			<path d="M0 215.75 A4.3937 4.3937 0 0 1 8.79 215.75 A4.3937 4.3937 0 1 1 0 215.75 Z" class="st24"/>
		</g>
		<g id="shape59-128" transform="translate(-135.786,157.04) rotate(-90.1)">
			<title>Circle.1216</title>
			<path d="M0 215.75 A4.3937 4.3937 0 0 1 8.79 215.75 A4.3937 4.3937 0 1 1 0 215.75 Z" class="st24"/>
		</g>
		<g id="shape60-130" transform="translate(-101.769,157.744) rotate(-90.1)">
			<title>Rounded Rectangle.1217</title>
			<path d="M1.82 220.14 L8.64 220.14 A1.81765 1.81765 -180 0 0 10.46 218.32 L10.46 166.38 A1.81765 1.81765 -180 0 0 8.64
						 164.57 L1.82 164.57 A1.81765 1.81765 -180 0 0 -0 166.38 L0 218.32 A1.81765 1.81765 -180 0 0 1.82 220.14
						 Z" class="st25"/>
		</g>
		<g id="shape61-132" transform="translate(110.315,-74.0228)">
			<title>Dynamic connector.1223</title>
			<path d="M3.65 213.05 L10.52 213.05" class="st11"/>
		</g>
		<g id="shape62-137" transform="translate(116.687,-73.1724)">
			<title>Sheet.62</title>
			<desc>Ʃ</desc>
			<rect x="0" y="204.683" width="16.9077" height="15.458" class="st8"/>
			<text x="6.42" y="214.66" class="st26">Ʃ</text>		</g>
		<g id="shape63-140" transform="translate(-23.4051,163.656) rotate(-90)">
			<title>Rounded Rectangle.1226</title>
			<path d="M3.33 220.14 L7.37 220.14 A3.3269 3.3269 -180 0 0 10.7 216.81 L10.7 178.96 A3.3269 3.3269 -180 0 0 7.37 175.64
						 L3.33 175.64 A3.3269 3.3269 -180 0 0 -0 178.96 L0 216.81 A3.3269 3.3269 -180 0 0 3.33 220.14 Z"
					class="st27"/>
		</g>
		<g id="shape64-142" transform="translate(-57.7043,162.701) rotate(-90)">
			<title>Circle.1227</title>
			<path d="M0 215.75 A4.3937 4.3937 0 0 1 8.79 215.75 A4.3937 4.3937 0 1 1 -0 215.75 Z" class="st28"/>
		</g>
		<g id="shape65-144" transform="translate(-46.8617,162.701) rotate(-90)">
			<title>Circle.1228</title>
			<path d="M0 215.75 A4.3937 4.3937 0 0 1 8.79 215.75 A4.3937 4.3937 0 1 1 -0 215.75 Z" class="st29"/>
		</g>
		<g id="shape66-146" transform="translate(-101.741,168.288) rotate(-90.1)">
			<title>Rounded Rectangle.1231</title>
			<path d="M1.82 220.14 L8.64 220.14 A1.81765 1.81765 -180 0 0 10.46 218.32 L10.46 166.38 A1.81765 1.81765 -180 0 0 8.64
						 164.57 L1.82 164.57 A1.81765 1.81765 -180 0 0 -0 166.38 L0 218.32 A1.81765 1.81765 -180 0 0 1.82 220.14
						 Z" class="st25"/>
		</g>
		<g id="shape67-148" transform="translate(118.689,-50.7787)">
			<title>Dynamic connector.1232</title>
			<path d="M2.83 214.76 L11.34 211.35" class="st14"/>
		</g>
		<g id="shape68-153" transform="translate(-35.8775,162.701) rotate(-90)">
			<title>Circle.1233</title>
			<path d="M0 215.75 A4.3937 4.3937 0 0 1 8.79 215.75 A4.3937 4.3937 0 1 1 -0 215.75 Z" class="st29"/>
		</g>
		<g id="shape69-155" transform="translate(-25.035,162.701) rotate(-90)">
			<title>Circle.1234</title>
			<path d="M0 215.75 A4.3937 4.3937 0 0 1 8.79 215.75 A4.3937 4.3937 0 1 1 -0 215.75 Z" class="st29"/>
		</g>
		<g id="shape70-157" transform="translate(137.992,-54.4249)">
			<title>Dynamic connector.1235</title>
			<path d="M3.08 213.05 L11.09 213.05" class="st14"/>
		</g>
		<g id="shape71-162" transform="translate(-143.837,143.717) rotate(-105.193)">
			<title>Sheet.71</title>
			<path d="M-0 220.14 A14.5757 2.75761 5.6 0 1 18.39 220.14" class="st30"/>
		</g>
		<g id="shape72-168" transform="translate(223.977,253.337) rotate(146.282)">
			<title>Sheet.72</title>
			<path d="M0 220.14 A19.9742 2.56907 178.9 0 1 27.94 220.14" class="st2"/>
		</g>
		<g id="group73-173" transform="translate(372.976,168.056) rotate(90.4)">
			<title>Sheet.73</title>
			<g id="shape74-174" transform="translate(220.117,176.939) rotate(89.9)">
				<title>Trapezoid.1152</title>
				<path d="M0 220.14 L42.8 220.14 L29.09 209.7 L13.71 209.7 L0 220.14 Z" class="st31"/>
			</g>
			<g id="shape75-176" transform="translate(174.982,43.7601) rotate(52.583)">
				<title>Sheet.75</title>
				<path d="M0 220.14 L16.79 220.14" class="st32"/>
			</g>
			<g id="shape76-179" transform="translate(-175.252,86.9517) rotate(-52.8326)">
				<title>Sheet.76</title>
				<path d="M0 220.14 L16.81 220.14" class="st32"/>
			</g>
		</g>
		<g id="shape77-182" transform="translate(166.94,-45.2147)">
			<title>Dynamic connector.1242</title>
			<path d="M7.09 223.72 L7.09 230.73" class="st14"/>
		</g>
		<g id="shape78-187" transform="translate(164.331,-42.0942)">
			<title>Sheet.78</title>
			<desc>FC</desc>
			<rect x="0" y="208.75" width="20" height="11.3915" class="st8"/>
			<text x="5.53" y="217.15" class="st33">FC</text>		</g>
		<g id="shape79-190" transform="translate(-159.468,71.1717) rotate(-90)">
			<title>Sheet.79</title>
			<desc>Query</desc>
			<rect x="0" y="200.141" width="37.794" height="20" class="st8"/>
			<text x="4" y="213.14" class="st34">Query</text>		</g>
		<g id="shape80-193" transform="translate(-118.984,72.1733) rotate(-90)">
			<title>Sheet.80</title>
			<desc>Document</desc>
			<rect x="0" y="200.141" width="52.0794" height="20" class="st8"/>
			<text x="4" y="213.14" class="st34">Document</text>		</g>
		<g id="shape81-196" transform="translate(-178.076,71.3771) rotate(-90)">
			<title>Sheet.81</title>
			<path d="M0 220.14 L0 214.45 L37.79 214.45 L37.79 220.14" class="st35"/>
		</g>
		<g id="shape82-199" transform="translate(-181.891,75.8974) rotate(-90)">
			<title>Sheet.82</title>
			<desc>Encoding</desc>
			<rect x="0" y="200.141" width="47.4258" height="20" class="st8"/>
			<text x="8.85" y="212.54" class="st36">Encoding</text>		</g>
		<g id="shape83-202" transform="translate(-178.076,108.002) rotate(-90)">
			<title>Sheet.83</title>
			<path d="M0 220.14 L0 214.45 L33.45 214.45 L33.45 220.14" class="st37"/>
		</g>
		<g id="shape84-205" transform="translate(-181.891,113.075) rotate(-90)">
			<title>Sheet.84</title>
			<desc>Matching</desc>
			<rect x="0" y="200.141" width="42.3235" height="20" class="st8"/>
			<text x="5.79" y="212.54" class="st38">Matching</text>		</g>
		<g id="shape85-208" transform="translate(-178.076,171.688) rotate(-90)">
			<title>Sheet.85</title>
			<path d="M0 220.14 L0 214.45 L60.36 214.45 L60.36 220.14" class="st39"/>
		</g>
		<g id="shape86-211" transform="translate(-181.891,171.688) rotate(-90)">
			<title>Sheet.86</title>
			<desc>Kernels</desc>
			<rect x="0" y="200.141" width="60.3573" height="20" class="st8"/>
			<text x="18.14" y="212.54" class="st40">Kernels</text>		</g>
		<g id="shape94-214" transform="translate(113.168,-19.5254)">
			<title>Sheet.94</title>
			<desc>score(q, d)</desc>
			<rect x="0" y="203.859" width="70.8661" height="16.282" class="st8"/>
			<text x="4" y="215" class="st41">score(q, d)</text>		</g>
		<g id="shape1000-217" transform="translate(419.795,149.062) rotate(90)">
			<title>Sheet.1000</title>
			<path d="M0 220.14 L0 214.45 L52.08 214.45 L52.08 220.14" class="st42"/>
		</g>
		<g id="shape1001-220" transform="translate(425.665,149.062) rotate(90)">
			<title>Sheet.1001</title>
			<desc>Final Scoring</desc>
			<rect x="0" y="200.141" width="52.0794" height="20" class="st8"/>
			<text x="5.51" y="212.54" class="st43">Final Scoring</text>		</g>
	</g>
</svg>
