<?xml version="1.0" encoding="UTF-8" standalone="no"?>
<!DOCTYPE svg PUBLIC "-//W3C//DTD SVG 1.1//EN" "http://www.w3.org/Graphics/SVG/1.1/DTD/svg11.dtd">
<!-- Generated by Microsoft Visio, SVG Export re-ranking-overview.svg Page-1 -->
<svg xmlns="http://www.w3.org/2000/svg" xmlns:xlink="http://www.w3.org/1999/xlink" xmlns:ev="http://www.w3.org/2001/xml-events"
		width="8.86729in" height="3.19961in" viewBox="0 0 638.445 230.372" xml:space="preserve" color-interpolation-filters="sRGB"
		class="st17">
	<style type="text/css">
	<![CDATA[
		.st1 {fill:#e3c9f8;stroke:#411c5b;stroke-width:1}
		.st2 {fill:#411c5b;font-size:1.00001em}
		.st3 {font-size:1em}
		.st4 {fill:none;stroke:none;stroke-width:0.25}
		.st5 {fill:#833c0b;font-size:1.00001em}
		.st6 {marker-end:url(#mrkr1-13);stroke:#7f7f7f;stroke-linecap:round;stroke-linejoin:round;stroke-width:1}
		.st7 {fill:#7f7f7f;fill-opacity:1;stroke:#7f7f7f;stroke-opacity:1;stroke-width:0.28409090909091}
		.st8 {stroke:#c55a11;stroke-width:1}
		.st9 {fill:#3f3f3f;font-size:1.00001em}
		.st10 {fill:#f4b183;stroke:#c55a11;stroke-width:1}
		.st11 {fill:#000000;font-size:1.00001em}
		.st12 {fill:#f2f2f2;stroke:#3f3f3f;stroke-width:1}
		.st13 {fill:#7f7f7f;font-size:1em;font-style:italic}
		.st14 {fill:#7030a0;font-size:1.00001em}
		.st15 {stroke:#c514ae;stroke-width:1}
		.st16 {stroke:#7f7f7f;stroke-linecap:round;stroke-linejoin:round;stroke-width:1}
		.st17 {fill:none;fill-rule:evenodd;font-size:12px;overflow:visible;stroke-linecap:square;stroke-miterlimit:3}
	]]>
	</style>

	<defs id="Markers">
		
		<marker id="mrkr1-13" class="st7" orient="auto" markerUnits="strokeWidth" overflow="visible">
			<g id="lend1" transform="scale(-3.52,-3.52)">
				<path d="M 1 -1 L 0 0 L 1 1 " style="stroke-linecap:round;stroke-linejoin:round;fill:none"/>
			</g>
		</marker>
	</defs>
	<g>
		<g id="shape1002-1" transform="translate(437.313,-85.6235)">
			<desc>Neural IR Model</desc>
			<path d="M7.55 230.37 L67.95 230.37 A7.55038 7.55038 -180 0 0 75.51 222.82 L75.51 192.57 A7.55038 7.55038 -180 0 0 67.95
						 185.02 L7.55 185.02 A7.55038 7.55038 -180 0 0 -0 192.57 L0 222.82 A7.55038 7.55038 -180 0 0 7.55 230.37
						 Z" class="st1"/>
			<text x="15.27" y="204.09" class="st2">Neural IR <tspan x="21.94" dy="1.2em" class="st3">Model</tspan></text>		</g>
		<g id="shape1003-5" transform="translate(191.536,-140.21)">
			<rect x="0" y="210.372" width="112.991" height="20" class="st4"/>
			<text x="14.24" y="223.97" class="st5">First stage ranker</text>		</g>
		<g id="shape1004-8" transform="translate(115.672,-100.321)">
			<path d="M0 223.29 L98.3 223.29" class="st6"/>
		</g>
		<g id="shape1005-14" transform="translate(217.787,-127.603)">
			<path d="M0 230.37 L0 221.16 L56.69 221.16 L56.69 230.37" class="st8"/>
		</g>
		<g id="shape1006-17" transform="translate(70.6909,-189.445)">
			<path d="M7.09 230.37 L7.09 278.56" class="st6"/>
		</g>
		<g id="shape1007-22" transform="translate(111.712,-114.99)">
			<desc>All matched document statistics</desc>
			<rect x="0" y="210.372" width="107.973" height="20" class="st4"/>
			<text x="4" y="216.77" class="st9">All matched <tspan x="4" dy="1.2em" class="st3">document statistics</tspan></text>		</g>
		<g id="shape1009-26" transform="translate(221.718,-92.327)">
			<desc>BM25</desc>
			<path d="M4.54 230.37 L40.82 230.37 A4.53536 4.53536 -180 0 0 45.35 225.84 L45.35 200.89 A4.53536 4.53536 -180 0 0 40.82
						 196.36 L4.54 196.36 A4.53536 4.53536 -180 0 0 0 200.89 L0 225.84 A4.53536 4.53536 -180 0 0 4.54 230.37 Z"
					class="st10"/>
			<text x="8.2" y="216.96" class="st11">BM25</text>		</g>
		<g id="shape1010-29" transform="translate(240.945,-84.7123)">
			<path d="M0 230.37 L0 260.12 L19.67 260.12" class="st6"/>
		</g>
		<g id="shape1011-34" transform="translate(526.677,-101.444)">
			<path d="M0 223.29 L17.73 223.29" class="st6"/>
		</g>
		<g id="group1012-39" transform="translate(51.4428,-78.0354)">
			<desc>Inverted Index</desc>
			<g id="shape1013-40">
				<path d="M0 224.53 A28.3465 5.84457 -180 1 0 56.69 224.53 L56.69 179.26 L0 179.26 L0 224.53 Z" class="st12"/>
			</g>
			<g id="shape1012-42">
				<ellipse cx="28.3465" cy="179.262" rx="28.3465" ry="5.84457" class="st12"/>
				<text x="7.75" y="205.49" class="st11">Inverted <tspan x="14.95" dy="1.2em" class="st3">Index</tspan></text>			</g>
		</g>
		<g id="shape1014-46" transform="translate(158.936,-49.9163)">
			<desc>Ranked documents (Top 1000)</desc>
			<rect x="0" y="210.372" width="80.1439" height="20" class="st4"/>
			<text x="39.84" y="209.57" class="st9">Ranked <tspan x="21.56" dy="1.2em" class="st3">documents </tspan><tspan
						x="23.65" dy="1.2em" class="st13">(Top 1000)</tspan></text>		</g>
		<g id="shape1015-51" transform="translate(550.488,-98.7482)">
			<desc>Re-Ranked documents (Top 10)</desc>
			<rect x="0" y="210.372" width="66.8401" height="20" class="st4"/>
			<text x="4" y="209.57" class="st9">Re-Ranked <tspan x="4" dy="1.2em" class="st3">documents </tspan><tspan x="4"
						dy="1.2em" class="st13">(Top 10)</tspan></text>		</g>
		<g id="shape1016-56" transform="translate(412.704,-141.732)">
			<desc>Second stage re-ranker</desc>
			<rect x="0" y="196.356" width="124.724" height="34.0157" class="st4"/>
			<text x="30.22" y="209.76" class="st14">Second stage  <tspan x="39.53" dy="1.2em" class="st3">re</tspan>-ranker</text>		</g>
		<g id="shape1017-60" transform="translate(434.169,-132.52)">
			<path d="M0 230.37 L0 221.16 L80.14 221.16 L80.14 230.37" class="st15"/>
		</g>
		<g id="shape1020-63" transform="translate(44.7874,-192.122)">
			<desc>Query</desc>
			<rect x="0" y="210.372" width="58.502" height="20" class="st4"/>
			<text x="24.54" y="223.97" class="st11">Query</text>		</g>
		<g id="shape1021-66" transform="translate(108.959,-200.783)">
			<path d="M0 230.37 L190.77 230.37 L190.77 322.5 L314.65 322.5" class="st6"/>
		</g>
		<g id="group1022-71" transform="translate(271.276,-31.439)">
			<desc>Full text storage</desc>
			<g id="shape1023-72">
				<path d="M0 224.53 A28.3465 5.84457 -180 1 0 56.69 224.53 L56.69 179.26 L0 179.26 L0 224.53 Z" class="st12"/>
			</g>
			<g id="shape1022-74">
				<ellipse cx="28.3465" cy="179.262" rx="28.3465" ry="5.84457" class="st12"/>
				<text x="8.72" y="205.49" class="st11">Full text <tspan x="10.05" dy="1.2em" class="st3">storage</tspan></text>			</g>
		</g>
		<g id="shape1024-78" transform="translate(299.73,-93.6536)">
			<path d="M0 230.37 L0 215.34 L14.6 215.34" class="st16"/>
		</g>
		<g id="shape1025-81" transform="translate(313.994,-116.344)">
			<desc>Query-document text pairs</desc>
			<rect x="0" y="210.372" width="95.4376" height="20" class="st4"/>
			<text x="4" y="216.77" class="st9">Query-document <tspan x="4" dy="1.2em" class="st3">text pairs</tspan></text>		</g>
	</g>
</svg>
