<?xml version="1.0" encoding="UTF-8" standalone="no"?>
<!DOCTYPE svg PUBLIC "-//W3C//DTD SVG 1.1//EN" "http://www.w3.org/Graphics/SVG/1.1/DTD/svg11.dtd">
<!-- Generated by Microsoft Visio, SVG Export tk_architecture.svg Page-1 -->
<svg xmlns="http://www.w3.org/2000/svg" xmlns:xlink="http://www.w3.org/1999/xlink" xmlns:ev="http://www.w3.org/2001/xml-events"
		width="850" height="400" viewBox="0 0 524.27 209.236" xml:space="preserve" color-interpolation-filters="sRGB"
		class="st75">
	<style type="text/css">
	<![CDATA[
		.st1 {fill:#f2f2f2;stroke:none;stroke-width:0.25}
		.st2 {fill:#90aadb;fill-opacity:0.17;stroke:#305497;stroke-dasharray:0.01,2.5;stroke-width:0.5}
		.st3 {fill:#f2f2f2;fill-opacity:0.17;stroke:#7f7f7f;stroke-dasharray:3.5,2.5;stroke-width:0.5}
		.st4 {fill:#fafafa;stroke:#7f7f7f;stroke-width:0.5}
		.st5 {marker-end:url(#mrkr1-22);stroke:#7f7f7f;stroke-linecap:round;stroke-linejoin:round;stroke-width:1}
		.st6 {fill:#7f7f7f;fill-opacity:1;stroke:#7f7f7f;stroke-opacity:1;stroke-width:0.28409090909091}
		.st7 {fill:#fff2cc;stroke:none;stroke-width:0.25}
		.st8 {fill:#ffd965;stroke:none;stroke-width:0.25}
		.st9 {fill:#fbe5d5;stroke:none;stroke-width:0.25}
		.st10 {fill:#f4b183;stroke:none;stroke-width:0.25}
		.st11 {fill:none;stroke:none;stroke-width:0.25}
		.st12 {fill:#7f7f7f;font-family:Calibri;font-size:1.00001em}
		.st13 {fill:#000000;stroke:none;stroke-width:0.25}
		.st14 {fill:#e2efd9;stroke:none;stroke-width:0.25}
		.st15 {fill:#a8d08d;stroke:none;stroke-width:0.25}
		.st16 {fill:#bdd0e9;stroke:#305497;stroke-width:0.75}
		.st17 {stroke:#002060;stroke-linecap:round;stroke-linejoin:round;stroke-width:0.75}
		.st18 {fill:none;stroke:#305497;stroke-width:0.75}
		.st19 {fill:#dae2f3;stroke:#4672c4;stroke-width:0.25}
		.st20 {fill:#002060;stroke:none;stroke-width:0.25}
		.st21 {fill:#759fcc;stroke:none;stroke-width:0.25}
		.st22 {stroke:#7f7f7f;stroke-linecap:round;stroke-linejoin:round;stroke-width:1}
		.st23 {fill:#7f7f7f;font-family:Calibri;font-size:0.666664em}
		.st24 {stroke:#7030a0;stroke-width:1}
		.st25 {fill:#7030a0;font-family:Calibri;font-size:0.75em}
		.st26 {stroke:#70ad47;stroke-width:1}
		.st27 {fill:#70ad47;font-family:Calibri;font-size:0.75em}
		.st28 {stroke:#4672c4;stroke-width:1}
		.st29 {fill:#305497;font-family:Calibri;font-size:0.75em}
		.st30 {fill:#000000;font-family:Times New Roman;font-size:0.75em;font-style:italic}
		.st31 {baseline-shift:-32.4951%;font-size:0.649902em}
		.st32 {font-size:1em}
		.st33 {fill:none;stroke:#7f7f7f;stroke-width:0.25}
		.st34 {stroke:#a5a5a5;stroke-linecap:round;stroke-linejoin:round;stroke-width:0.75}
		.st35 {fill:#3c63ac;stroke:#000000;stroke-linecap:round;stroke-linejoin:round;stroke-width:0.75}
		.st36 {stroke:#7f7f7f;stroke-dasharray:3,3;stroke-linecap:round;stroke-linejoin:round;stroke-width:1}
		.st37 {marker-end:url(#mrkr1-205);stroke:#7f7f7f;stroke-linecap:round;stroke-linejoin:round;stroke-width:1}
		.st38 {fill:#7f7f7f;fill-opacity:1;stroke:#7f7f7f;stroke-opacity:1;stroke-width:0.40983606557377}
		.st39 {stroke:#7f7f7f;stroke-width:1}
		.st40 {fill:#000000;font-family:Cambria Math;font-size:0.75em}
		.st41 {fill:#a5a5a5;stroke:none;stroke-width:0.25}
		.st42 {fill:#7030a0;stroke:none;stroke-width:0.25}
		.st43 {fill:#d8d8d8;stroke:none;stroke-width:0.25}
		.st44 {fill:#e3c9f8;stroke:#7030a0;stroke-width:0.75}
		.st45 {stroke:#411c5b;stroke-linecap:round;stroke-linejoin:round;stroke-width:0.5}
		.st46 {fill:none;stroke:#7030a0;stroke-width:0.75}
		.st47 {fill:#c514ae;stroke:none;stroke-width:0.25}
		.st48 {fill:#f5eef7;stroke:#7030a0;stroke-width:0.5}
		.st49 {stroke:#7f7f7f;stroke-linecap:butt;stroke-width:1}
		.st50 {fill:#e3c9f8;stroke:none;stroke-width:0.25}
		.st51 {stroke:#7030a0;stroke-linecap:round;stroke-linejoin:round;stroke-width:1}
		.st52 {visibility:visible}
		.st53 {fill:#7f7f7f;filter:url(#filter_2.6666667461395);stroke:none}
		.st54 {fill:none;filter:url(#filter_2.6666667461395);stroke:#7f7f7f;stroke-linecap:round;stroke-linejoin:round}
		.st55 {fill:#000000;font-family:Calibri;font-size:0.75em}
		.st56 {fill:#e39be8;fill-opacity:0.17;stroke:#7030a0;stroke-dasharray:0.01,2.5;stroke-width:0.5}
		.st57 {fill:#411c5b;stroke:none;stroke-width:0.25}
		.st58 {marker-end:url(#mrkr1-371);stroke:#000000;stroke-linecap:round;stroke-linejoin:round;stroke-width:0.5}
		.st59 {fill:#000000;fill-opacity:1;stroke:#000000;stroke-opacity:1;stroke-width:0.25773195876289}
		.st60 {fill:none;stroke:#7030a0;stroke-width:1}
		.st61 {fill:none;stroke:#7030a0;stroke-linecap:round;stroke-linejoin:round;stroke-width:0.75}
		.st62 {marker-start:url(#mrkr1-446);stroke:#7f7f7f;stroke-linecap:round;stroke-linejoin:round;stroke-width:1}
		.st63 {fill:#000000;font-family:Calibri Light;font-size:1.16666em}
		.st64 {fill:#a5a5a5;font-family:Calibri;font-size:0.75em}
		.st65 {fill:#a5a5a5;font-family:Calibri Light;font-size:0.75em}
		.st66 {fill:#4672c4;fill-opacity:0.36;stroke:#002060;stroke-dasharray:0,2.25;stroke-linecap:round;stroke-linejoin:round;stroke-width:0.75}
		.st67 {fill:#dae2f3;stroke:none;stroke-width:0.25}
		.st68 {stroke:#002060;stroke-linecap:round;stroke-linejoin:round;stroke-width:1}
		.st69 {fill:#595959;font-family:Calibri;font-size:0.583328em}
		.st70 {stroke:#bfbfbf;stroke-linecap:round;stroke-linejoin:round;stroke-width:0.5}
		.st71 {fill:#3f3f3f;font-family:Times New Roman;font-size:0.75em;font-style:italic}
		.st72 {fill:#3f3f3f;font-family:Times New Roman;font-size:0.811964em;font-style:italic}
		.st73 {baseline-shift:-33.35%;font-size:0.667em}
		.st74 {fill:#002060;font-family:Times New Roman;font-size:0.75em;font-style:italic}
		.st75 {fill:none;fill-rule:evenodd;font-size:12px;overflow:visible;stroke-linecap:square;stroke-miterlimit:3}
	]]>
	</style>

	<defs id="Markers">
		<marker id="mrkr1-22" class="st6" orient="auto" markerUnits="strokeWidth" overflow="visible">
			<g id="lend1" transform="scale(-3.52,-3.52) ">
				<path d="M 1 -1 L 0 0 L 1 1 " style="stroke-linecap:round;stroke-linejoin:round;fill:none"/>
			</g>
		</marker>
		<marker id="mrkr1-205" class="st38" orient="auto" markerUnits="strokeWidth" overflow="visible">
			<g id="lend12" transform="scale(-2.44,-2.44) ">
				<path d="M 1 -1 L 0 0 L 1 1 " style="stroke-linecap:round;stroke-linejoin:round;fill:none"/>
			</g>
		</marker>
		<marker id="mrkr1-371" class="st59" orient="auto" markerUnits="strokeWidth" overflow="visible">
			<g id="lend13" transform="scale(-3.88,-3.88) ">
				<path d="M 1 -1 L 0 0 L 1 1 " style="stroke-linecap:round;stroke-linejoin:round;fill:none"/>
			</g>
		</marker>
		<marker id="mrkr1-446" class="st38" orient="auto" markerUnits="strokeWidth" overflow="visible">
			<g id="lend14" transform="scale(2.44) ">
				<path d="M 1 -1 L 0 0 L 1 1 " style="stroke-linecap:round;stroke-linejoin:round;fill:none"/>
			</g>
		</marker>
	</defs>
	<defs id="Filters">
		<filter id="filter_2.6666667461395">
			<feGaussianBlur stdDeviation="2.6666667461395"/>
		</filter>
	</defs>
	<g>
		<title>Page-1</title>
		<g id="shape1252-1" transform="translate(449.656,-54.231)">
			<title>Rounded Rectangle.1252</title>
			<path d="M3.33 209.24 L7.37 209.24 A3.3269 3.3269 -180 0 0 10.7 205.91 L10.7 168.06 A3.3269 3.3269 -180 0 0 7.37 164.73
						 L3.33 164.73 A3.3269 3.3269 -180 0 0 -0 168.06 L0 205.91 A3.3269 3.3269 -180 0 0 3.33 209.24 Z"
					class="st1"/>
		</g>
		<g id="shape1230-3" transform="translate(375.636,-106.798)">
			<title>Rounded Rectangle.1230</title>
			<path d="M0.42 209.24 L8.38 209.24 a0.422879 0.422879 -180 0 0 0.422886 -0.422886 L8.8 189.85 a0.422879 0.422879 -180
						 0 0 -0.422886 -0.422886 L0.42 189.42 a0.422879 0.422879 -180 0 0 -0.422886 0.422886 L0 208.81 a0.422879
						 0.422879 -180 0 0 0.422886 0.422886 Z" class="st2"/>
		</g>
		<g id="shape1231-5" transform="translate(382.039,-101.382)">
			<title>Rounded Rectangle.1231</title>
			<path d="M0.42 209.24 L8.38 209.24 a0.422879 0.422879 -180 0 0 0.422886 -0.422886 L8.8 191.99 a0.422879 0.422879 -180
						 0 0 -0.422886 -0.422886 L0.42 191.57 a0.422879 0.422879 -180 0 0 -0.422886 0.422886 L0 208.81 a0.422879
						 0.422879 -180 0 0 0.422886 0.422886 Z" class="st2"/>
		</g>
		<g id="shape1232-7" transform="translate(378.605,-104.5)">
			<title>Rounded Rectangle.1232</title>
			<path d="M0.42 209.24 L8.38 209.24 a0.422879 0.422879 -180 0 0 0.422886 -0.422886 L8.8 190.86 a0.422879 0.422879 -180
						 0 0 -0.422886 -0.422886 L0.42 190.44 a0.422879 0.422879 -180 0 0 -0.422886 0.422886 L0 208.81 a0.422879
						 0.422879 -180 0 0 0.422886 0.422886 Z" class="st2"/>
		</g>
		<g id="shape1135-9" transform="translate(79.2652,-120.441)">
			<title>Rounded Rectangle.1342</title>
			<path d="M7.32 209.24 L145.07 209.24 A7.32102 7.32102 -180 0 0 152.4 201.91 L152.4 153.6 A7.32102 7.32102 -180 0 0 145.07
						 146.28 L7.32 146.28 A7.32102 7.32102 -180 0 0 0 153.6 L0 201.91 A7.32102 7.32102 -180 0 0 7.32 209.24 Z"
					class="st3"/>
		</g>
		<g id="shape1114-11" transform="translate(73.1242,-48.2347)">
			<title>Rounded Rectangle.1641</title>
			<path d="M4.17 209.24 L145.52 209.24 A4.17263 4.17263 -180 0 0 149.7 205.06 L149.7 88.68 A4.17263 4.17263 -180 0 0 145.52
						 84.51 L4.17 84.51 A4.17263 4.17263 -180 0 0 0 88.68 L0 205.06 A4.17263 4.17263 -180 0 0 4.17 209.24 Z"
					class="st4"/>
		</g>
		<g id="shape1000-13" transform="translate(329.101,-107.372)">
			<title>Octagon.1245</title>
			<path d="M8.81 196.78 L3.65 196.78 L0 200.43 L0 205.59 L3.65 209.24 L8.81 209.24 L12.46 205.59 L12.46 200.43 L8.81 196.78
						 Z" class="st2"/>
		</g>
		<g id="shape1001-15" transform="translate(326.825,-109.648)">
			<title>Octagon.1246</title>
			<path d="M8.81 196.78 L3.65 196.78 L0 200.43 L0 205.59 L3.65 209.24 L8.81 209.24 L12.46 205.59 L12.46 200.43 L8.81 196.78
						 Z" class="st2"/>
		</g>
		<g id="shape1002-17" transform="translate(333.531,-123.866)">
			<title>Dynamic connector.1219</title>
			<path d="M7.09 209.24 L7.09 238.55" class="st5"/>
		</g>
		<g id="shape1003-23" transform="translate(331.936,-104.537)">
			<title>Octagon.1201</title>
			<path d="M8.81 196.78 L3.65 196.78 L0 200.43 L0 205.59 L3.65 209.24 L8.81 209.24 L12.46 205.59 L12.46 200.43 L8.81 196.78
						 Z" class="st2"/>
		</g>
		<g id="shape1004-25" transform="translate(302.851,-71.658)">
			<title>Rounded Rectangle.1222</title>
			<path d="M2.43 209.24 L48.08 209.24 A2.42607 2.42607 -180 0 0 50.5 206.81 L50.5 191.85 A2.42607 2.42607 -180 0 0 48.08
						 189.42 L2.43 189.42 A2.42607 2.42607 -180 0 0 -0 191.85 L0 206.81 A2.42607 2.42607 -180 0 0 2.43 209.24
						 Z" class="st2"/>
		</g>
		<g id="shape1005-27" transform="translate(311.656,-64.0944)">
			<title>Rounded Rectangle.80</title>
			<path d="M2.43 209.24 L48.08 209.24 A2.42607 2.42607 -180 0 0 50.5 206.81 L50.5 191.85 A2.42607 2.42607 -180 0 0 48.08
						 189.42 L2.43 189.42 A2.42607 2.42607 -180 0 0 -0 191.85 L0 206.81 A2.42607 2.42607 -180 0 0 2.43 209.24
						 Z" class="st2"/>
		</g>
		<g id="shape1006-29" transform="translate(307.143,-68.3464)">
			<title>Rounded Rectangle.1221</title>
			<path d="M2.43 209.24 L48.08 209.24 A2.42607 2.42607 -180 0 0 50.5 206.81 L50.5 191.85 A2.42607 2.42607 -180 0 0 48.08
						 189.42 L2.43 189.42 A2.42607 2.42607 -180 0 0 -0 191.85 L0 206.81 A2.42607 2.42607 -180 0 0 2.43 209.24
						 Z" class="st2"/>
		</g>
		<g id="group1007-31" transform="translate(456.126,58.2674) rotate(90)">
			<title>Sheet.1007</title>
			<g id="shape1008-32">
				<title>Rounded Rectangle.23</title>
				<path d="M3.33 209.24 L7.37 209.24 A3.3269 3.3269 -180 0 0 10.7 205.91 L10.7 179.11 A3.3269 3.3269 -180 0 0 7.37
							 175.79 L3.33 175.79 A3.3269 3.3269 -180 0 0 0 179.11 L0 205.91 A3.3269 3.3269 -180 0 0 3.33 209.24 Z"
						class="st7"/>
			</g>
			<g id="shape1009-34" transform="translate(0.954819,-23.2441)">
				<title>Circle</title>
				<path d="M0 204.84 A4.3937 4.3937 0 0 1 8.79 204.84 A4.3937 4.3937 0 1 1 0 204.84 Z" class="st8"/>
			</g>
			<g id="shape1010-36" transform="translate(0.954819,-12.4016)">
				<title>Circle.25</title>
				<path d="M0 204.84 A4.3937 4.3937 0 0 1 8.79 204.84 A4.3937 4.3937 0 1 1 0 204.84 Z" class="st8"/>
			</g>
			<g id="shape1011-38" transform="translate(0.954819,-1.55906)">
				<title>Circle.26</title>
				<path d="M0 204.84 A4.3937 4.3937 0 0 1 8.79 204.84 A4.3937 4.3937 0 1 1 0 204.84 Z" class="st8"/>
			</g>
		</g>
		<g id="group1012-40" transform="translate(455.776,95.2655) rotate(90)">
			<title>Sheet.1012</title>
			<g id="shape1013-41">
				<title>Rounded Rectangle.23</title>
				<path d="M3.33 209.24 L7.37 209.24 A3.3269 3.3269 -180 0 0 10.7 205.91 L10.7 179.11 A3.3269 3.3269 -180 0 0 7.37
							 175.79 L3.33 175.79 A3.3269 3.3269 -180 0 0 0 179.11 L0 205.91 A3.3269 3.3269 -180 0 0 3.33 209.24 Z"
						class="st9"/>
			</g>
			<g id="shape1014-43" transform="translate(0.954819,-23.2441)">
				<title>Circle</title>
				<path d="M0 204.84 A4.3937 4.3937 0 0 1 8.79 204.84 A4.3937 4.3937 0 1 1 0 204.84 Z" class="st10"/>
			</g>
			<g id="shape1015-45" transform="translate(0.954819,-12.4016)">
				<title>Circle.25</title>
				<path d="M0 204.84 A4.3937 4.3937 0 0 1 8.79 204.84 A4.3937 4.3937 0 1 1 0 204.84 Z" class="st10"/>
			</g>
			<g id="shape1016-47" transform="translate(0.954819,-1.55906)">
				<title>Circle.26</title>
				<path d="M0 204.84 A4.3937 4.3937 0 0 1 8.79 204.84 A4.3937 4.3937 0 1 1 0 204.84 Z" class="st10"/>
			</g>
		</g>
		<g id="group1017-49" transform="translate(456.126,42.6753) rotate(90)">
			<title>Sheet.1017</title>
			<g id="shape1018-50">
				<title>Rounded Rectangle.23</title>
				<path d="M3.33 209.24 L7.37 209.24 A3.3269 3.3269 -180 0 0 10.7 205.91 L10.7 179.11 A3.3269 3.3269 -180 0 0 7.37
							 175.79 L3.33 175.79 A3.3269 3.3269 -180 0 0 0 179.11 L0 205.91 A3.3269 3.3269 -180 0 0 3.33 209.24 Z"
						class="st7"/>
			</g>
			<g id="shape1019-52" transform="translate(0.954819,-23.2441)">
				<title>Circle</title>
				<path d="M0 204.84 A4.3937 4.3937 0 0 1 8.79 204.84 A4.3937 4.3937 0 1 1 0 204.84 Z" class="st8"/>
			</g>
			<g id="shape1020-54" transform="translate(0.954819,-12.4016)">
				<title>Circle.25</title>
				<path d="M0 204.84 A4.3937 4.3937 0 0 1 8.79 204.84 A4.3937 4.3937 0 1 1 0 204.84 Z" class="st8"/>
			</g>
			<g id="shape1021-56" transform="translate(0.954819,-1.55906)">
				<title>Circle.26</title>
				<path d="M0 204.84 A4.3937 4.3937 0 0 1 8.79 204.84 A4.3937 4.3937 0 1 1 0 204.84 Z" class="st8"/>
			</g>
		</g>
		<g id="group1023-58" transform="translate(455.776,115.958) rotate(90)">
			<title>Sheet.1023</title>
			<g id="shape1024-59">
				<title>Rounded Rectangle.23</title>
				<path d="M3.33 209.24 L7.37 209.24 A3.3269 3.3269 -180 0 0 10.7 205.91 L10.7 179.11 A3.3269 3.3269 -180 0 0 7.37
							 175.79 L3.33 175.79 A3.3269 3.3269 -180 0 0 0 179.11 L0 205.91 A3.3269 3.3269 -180 0 0 3.33 209.24 Z"
						class="st9"/>
			</g>
			<g id="shape1025-61" transform="translate(0.954819,-23.2441)">
				<title>Circle</title>
				<path d="M0 204.84 A4.3937 4.3937 0 0 1 8.79 204.84 A4.3937 4.3937 0 1 1 0 204.84 Z" class="st10"/>
			</g>
			<g id="shape1026-63" transform="translate(0.954819,-12.4016)">
				<title>Circle.25</title>
				<path d="M0 204.84 A4.3937 4.3937 0 0 1 8.79 204.84 A4.3937 4.3937 0 1 1 0 204.84 Z" class="st10"/>
			</g>
			<g id="shape1027-65" transform="translate(0.954819,-1.55906)">
				<title>Circle.26</title>
				<path d="M0 204.84 A4.3937 4.3937 0 0 1 8.79 204.84 A4.3937 4.3937 0 1 1 0 204.84 Z" class="st10"/>
			</g>
		</g>
		<g id="shape1028-67" transform="translate(246.54,-90.8011)">
			<title>Sheet.1028</title>
			<desc>...</desc>
			<rect x="0" y="189.236" width="33.4488" height="20" class="st11"/>
			<text x="12.18" y="202.84" class="st12">...</text>		</g>
		<g id="shape1030-70" transform="translate(491.16,-98.0795)">
			<title>Circle.1145</title>
			<path d="M0 203.89 A5.34851 5.34851 0 1 1 10.7 203.89 A5.34851 5.34851 0 1 1 0 203.89 Z" class="st13"/>
		</g>
		<g id="shape1032-72" transform="translate(159.026,80.8893) rotate(-90.1)">
			<title>Rounded Rectangle.23</title>
			<path d="M2.06 209.24 L19.65 209.24 A2.06481 2.06481 -180 0 0 21.71 207.17 L21.71 155.73 A2.06481 2.06481 -180 0 0 19.65
						 153.66 L2.06 153.66 A2.06481 2.06481 -180 0 0 0 155.73 L0 207.17 A2.06481 2.06481 -180 0 0 2.06 209.24 Z"
					class="st14"/>
		</g>
		<g id="shape1033-74" transform="translate(146.567,79.6673) rotate(-90.1)">
			<title>Circle</title>
			<path d="M0 204.84 A4.3937 4.3937 0 0 1 8.79 204.84 A4.3937 4.3937 0 1 1 0 204.84 Z" class="st15"/>
		</g>
		<g id="shape1034-76" transform="translate(125.059,69.213) rotate(-90.1)">
			<title>Circle.25</title>
			<path d="M0 204.84 A4.3937 4.3937 0 0 1 8.79 204.84 A4.3937 4.3937 0 1 1 0 204.84 Z" class="st15"/>
		</g>
		<g id="shape1035-78" transform="translate(135.861,69.213) rotate(-90.1)">
			<title>Circle.26</title>
			<path d="M0 204.84 A4.3937 4.3937 0 0 1 8.79 204.84 A4.3937 4.3937 0 1 1 0 204.84 Z" class="st15"/>
		</g>
		<g id="shape1036-80" transform="translate(146.672,69.213) rotate(-90.1)">
			<title>Circle.1120</title>
			<path d="M0 204.84 A4.3937 4.3937 0 0 1 8.79 204.84 A4.3937 4.3937 0 1 1 0 204.84 Z" class="st15"/>
		</g>
		<g id="shape1037-82" transform="translate(157.482,69.213) rotate(-90.1)">
			<title>Circle.1121</title>
			<path d="M0 204.84 A4.3937 4.3937 0 0 1 8.79 204.84 A4.3937 4.3937 0 1 1 0 204.84 Z" class="st15"/>
		</g>
		<g id="shape1038-84" transform="translate(113.96,79.6673) rotate(-90.1)">
			<title>Circle.1122</title>
			<path d="M0 204.84 A4.3937 4.3937 0 0 1 8.79 204.84 A4.3937 4.3937 0 1 1 0 204.84 Z" class="st15"/>
		</g>
		<g id="shape1039-86" transform="translate(124.827,79.6673) rotate(-90.1)">
			<title>Circle.1123</title>
			<path d="M0 204.84 A4.3937 4.3937 0 0 1 8.79 204.84 A4.3937 4.3937 0 1 1 0 204.84 Z" class="st15"/>
		</g>
		<g id="shape1040-88" transform="translate(135.701,79.6673) rotate(-90.1)">
			<title>Circle.1124</title>
			<path d="M0 204.84 A4.3937 4.3937 0 0 1 8.79 204.84 A4.3937 4.3937 0 1 1 0 204.84 Z" class="st15"/>
		</g>
		<g id="shape1041-90" transform="translate(157.449,79.6673) rotate(-90.1)">
			<title>Circle.1125</title>
			<path d="M0 204.84 A4.3937 4.3937 0 0 1 8.79 204.84 A4.3937 4.3937 0 1 1 0 204.84 Z" class="st15"/>
		</g>
		<g id="shape1042-92" transform="translate(114.264,69.213) rotate(-90.1)">
			<title>Circle.1126</title>
			<path d="M0 204.84 A4.3937 4.3937 0 0 1 8.79 204.84 A4.3937 4.3937 0 1 1 0 204.84 Z" class="st15"/>
		</g>
		<g id="group1043-94" transform="translate(334.212,-102.562)">
			<title>Sheet.1043</title>
			<g id="shape1044-95">
				<title>Octagon.1199</title>
				<path d="M8.81 196.78 L3.65 196.78 L0 200.43 L0 205.59 L3.65 209.24 L8.81 209.24 L12.46 205.59 L12.46 200.43 L8.81
							 196.78 Z" class="st16"/>
			</g>
			<g id="shape1045-97" transform="translate(0.412315,-4.1543)">
				<title>Sheet.1045</title>
				<path d="M-0 209.24 A15.5212 7.5534 -89.22 0 0 3.2 206.54 A3.54331 3.54331 0 0 1 4.77 205.28 A11.8812 5.25689 90
							 0 1 6.7 205.3 A3.54331 3.54331 0 0 1 8.14 206.45 A26.5468 9.88924 -90.04 0 0 11.63 209.16"
						class="st17"/>
			</g>
			<g id="shape1046-100">
				<title>Octagon.1201</title>
				<path d="M8.81 196.78 L3.65 196.78 L0 200.43 L0 205.59 L3.65 209.24 L8.81 209.24 L12.46 205.59 L12.46 200.43 L8.81
							 196.78 Z" class="st18"/>
			</g>
		</g>
		<g id="shape1048-102" transform="translate(161.759,149.612) rotate(-90.1)">
			<title>Rounded Rectangle.1206</title>
			<path d="M2.06 209.24 L19.65 209.24 A2.06481 2.06481 -180 0 0 21.71 207.17 L21.71 155.73 A2.06481 2.06481 -180 0 0 19.65
						 153.66 L2.06 153.66 A2.06481 2.06481 -180 0 0 0 155.73 L0 207.17 A2.06481 2.06481 -180 0 0 2.06 209.24 Z"
					class="st19"/>
		</g>
		<g id="shape1049-104" transform="translate(149.301,148.39) rotate(-90.1)">
			<title>Circle.1207</title>
			<path d="M0 204.84 A4.3937 4.3937 0 0 1 8.79 204.84 A4.3937 4.3937 0 1 1 0 204.84 Z" class="st20"/>
		</g>
		<g id="shape1050-106" transform="translate(116.975,137.936) rotate(-90.1)">
			<title>Circle.1208</title>
			<path d="M0 204.84 A4.3937 4.3937 0 0 1 8.79 204.84 A4.3937 4.3937 0 1 1 0 204.84 Z" class="st21"/>
		</g>
		<g id="shape1051-108" transform="translate(138.595,137.936) rotate(-90.1)">
			<title>Circle.1209</title>
			<path d="M0 204.84 A4.3937 4.3937 0 0 1 8.79 204.84 A4.3937 4.3937 0 1 1 0 204.84 Z" class="st21"/>
		</g>
		<g id="shape1052-110" transform="translate(149.405,137.936) rotate(-90.1)">
			<title>Circle.1210</title>
			<path d="M0 204.84 A4.3937 4.3937 0 0 1 8.79 204.84 A4.3937 4.3937 0 1 1 0 204.84 Z" class="st21"/>
		</g>
		<g id="shape1053-112" transform="translate(160.215,137.936) rotate(-90.1)">
			<title>Circle.1211</title>
			<path d="M0 204.84 A4.3937 4.3937 0 0 1 8.79 204.84 A4.3937 4.3937 0 1 1 0 204.84 Z" class="st21"/>
		</g>
		<g id="shape1054-114" transform="translate(116.694,148.39) rotate(-90.1)">
			<title>Circle.1212</title>
			<path d="M0 204.84 A4.3937 4.3937 0 0 1 8.79 204.84 A4.3937 4.3937 0 1 1 0 204.84 Z" class="st20"/>
		</g>
		<g id="shape1055-116" transform="translate(127.56,148.39) rotate(-90.1)">
			<title>Circle.1213</title>
			<path d="M0 204.84 A4.3937 4.3937 0 0 1 8.79 204.84 A4.3937 4.3937 0 1 1 0 204.84 Z" class="st20"/>
		</g>
		<g id="shape1056-118" transform="translate(138.435,148.39) rotate(-90.1)">
			<title>Circle.1214</title>
			<path d="M0 204.84 A4.3937 4.3937 0 0 1 8.79 204.84 A4.3937 4.3937 0 1 1 0 204.84 Z" class="st20"/>
		</g>
		<g id="shape1057-120" transform="translate(160.183,148.39) rotate(-90.1)">
			<title>Circle.1215</title>
			<path d="M0 204.84 A4.3937 4.3937 0 0 1 8.79 204.84 A4.3937 4.3937 0 1 1 0 204.84 Z" class="st20"/>
		</g>
		<g id="shape1058-122" transform="translate(127.785,137.936) rotate(-90.1)">
			<title>Circle.1216</title>
			<path d="M0 204.84 A4.3937 4.3937 0 0 1 8.79 204.84 A4.3937 4.3937 0 1 1 0 204.84 Z" class="st21"/>
		</g>
		<g id="shape1071-124" transform="translate(447.019,-72.3094) rotate(52.0407)">
			<title>Sheet.1071</title>
			<path d="M0 209.24 L10.14 209.24" class="st22"/>
		</g>
		<g id="shape1078-127" transform="translate(18.25,-166.873)">
			<title>Sheet.1078</title>
			<desc>Query</desc>
			<rect x="0" y="189.236" width="37.794" height="20" class="st11"/>
			<text x="4" y="201.64" class="st23">Query</text>		</g>
		<g id="shape1079-130" transform="translate(18.7994,-131.108)">
			<title>Sheet.1079</title>
			<desc>Document</desc>
			<rect x="0" y="189.236" width="52.0794" height="20" class="st11"/>
			<text x="4" y="201.64" class="st23">Document</text>		</g>
		<g id="shape1080-133" transform="translate(285.723,372.978) rotate(180)">
			<title>Sheet.1080</title>
			<path d="M0 209.24 L0 203.54 L223.24 203.54 L223.24 209.24" class="st24"/>
		</g>
		<g id="shape1081-136" transform="translate(60.4963,-18.25)">
			<title>Sheet.1081</title>
			<desc>① Contextualized encoding</desc>
			<rect x="0" y="189.236" width="225.226" height="20" class="st11"/>
			<text x="64.53" y="201.94" class="st25">① Contextualized encoding </text>		</g>
		<g id="shape1082-139" transform="translate(288.113,-167.231)">
			<title>Sheet.1082</title>
			<path d="M0 209.24 L0 203.54 L88.32 203.54 L88.32 209.24" class="st26"/>
		</g>
		<g id="shape1083-142" transform="translate(272.126,-170.986)">
			<title>Sheet.1083</title>
			<desc>② Term x Term interaction</desc>
			<rect x="0" y="189.236" width="119.055" height="20" class="st11"/>
			<text x="10" y="201.94" class="st27">② Term x Term interaction</text>		</g>
		<g id="shape1084-145" transform="translate(443.355,372.978) rotate(180)">
			<title>Sheet.1084</title>
			<path d="M0 209.24 L0 203.54 L149.97 203.54 L149.97 209.24" class="st28"/>
		</g>
		<g id="shape1085-148" transform="translate(293.386,-18.4075)">
			<title>Sheet.1085</title>
			<desc>③ Kernels (log &#38; length normalized)</desc>
			<rect x="0" y="189.236" width="149.969" height="20" class="st11"/>
			<text x="8" y="201.94" class="st29">③ Kernels (log &#38; length normalized)</text>		</g>
		<g id="shape1087-151" transform="translate(18.9698,-159.103)">
			<title>Sheet.1087</title>
			<desc>q1 ,q2</desc>
			<rect x="0" y="192.954" width="36.8214" height="16.282" class="st11"/>
			<text x="4" y="203.8" class="st30">q<tspan dy="-0.279em" class="st31">1 ,</tspan><tspan dy="0.181em" class="st32">q</tspan><tspan
						dy="-0.279em" class="st31">2</tspan></text>		</g>
		<g id="shape1088-157" transform="translate(18.6235,-122.253)">
			<title>Sheet.1088</title>
			<desc>d1,d2, … ,dn</desc>
			<rect x="0" y="192.954" width="53.9598" height="16.282" class="st11"/>
			<text x="4" y="203.8" class="st30">d<tspan dy="-0.279em" class="st31">1,</tspan><tspan dy="0.181em" class="st32">d</tspan><tspan
						dy="-0.279em" class="st31">2, </tspan><tspan class="st31">… </tspan><tspan class="st31">,</tspan><tspan
						dy="0.181em" class="st32">d</tspan><tspan dy="-0.279em" class="st31">n</tspan></text>		</g>
		<g id="group1103-167" transform="translate(286.316,-136.034)">
			<title>Sheet.1103</title>
			<g id="group1095-168">
				<title>Sheet.1095</title>
				<g id="shape1096-169" transform="translate(-201.86,209.595) rotate(-90.1)">
					<title>Circle.1625</title>
					<path d="M0 205.55 A3.6848 3.6848 0 0 1 7.37 205.55 A3.6848 3.6848 0 1 1 0 205.55 Z" class="st33"/>
				</g>
			</g>
			<g id="shape1097-171" transform="translate(-194.108,134.033) rotate(-69.52)">
				<title>Sheet.1097</title>
				<path d="M0 209.24 L4.7 209.24" class="st34"/>
			</g>
			<g id="shape1098-174" transform="translate(72.7716,404.164) rotate(161.472)">
				<title>Sheet.1098</title>
				<path d="M0 209.24 L4.62 209.24" class="st34"/>
			</g>
			<g id="shape1099-177" transform="translate(56.6289,3.96687) rotate(15)">
				<title>Circular Arrow.1026</title>
				<path d="M2.13 208.73 L2.23 208.59 A1.18067 1.24984 -180 0 0 0.38 207.08 A1.18067 1.24984 0 0 1 2.23 208.59 L2.13
							 208.73 Z" class="st35"/>
			</g>
		</g>
		<g id="shape1123-179" transform="translate(47.2949,-176.074)">
			<title>Sheet.1123</title>
			<path d="M0 209.24 L28.99 209.24" class="st36"/>
		</g>
		<g id="shape1124-182" transform="translate(62.9727,-141.162)">
			<title>Sheet.1124</title>
			<path d="M0 209.24 L4.77 209.24" class="st22"/>
		</g>
		<g id="shape1125-185" transform="translate(235.77,-161.607)">
			<title>Sheet.1125</title>
			<path d="M0 209.24 L6.83 209.24" class="st36"/>
		</g>
		<g id="shape1126-188" transform="translate(202.007,-110.588)">
			<title>Sheet.1126</title>
			<path d="M0 209.24 L39.72 209.24" class="st22"/>
		</g>
		<g id="shape1127-191" transform="translate(237.442,-167.809)">
			<title>Sheet.1127</title>
			<desc>Query</desc>
			<rect x="0" y="189.236" width="37.794" height="20" class="st11"/>
			<text x="4" y="201.64" class="st23">Query</text>		</g>
		<g id="shape1128-194" transform="translate(236.508,-114.646)">
			<title>Sheet.1128</title>
			<desc>Document</desc>
			<rect x="0" y="189.236" width="52.0794" height="20" class="st11"/>
			<text x="4" y="201.64" class="st23">Document</text>		</g>
		<g id="shape1131-197" transform="translate(491.789,129.255) rotate(104.735)">
			<title>Sheet.1131</title>
			<path d="M0 209.24 L34.61 209.24" class="st22"/>
		</g>
		<g id="shape1132-200" transform="translate(295.146,-139.918)">
			<title>Sheet.1132</title>
			<path d="M0 209.24 L5.78 209.24" class="st37"/>
		</g>
		<g id="shape1133-206" transform="translate(36.2364,71.2868) rotate(-90)">
			<title>Sheet.1133</title>
			<path d="M0 209.24 L0 206.54 L31.72 206.54 L31.72 209.24" class="st36"/>
		</g>
		<g id="shape1134-209" transform="translate(35.5575,128.345) rotate(-90)">
			<title>Sheet.1134</title>
			<path d="M0 209.24 L0 206.54 L35.72 206.54 L35.72 209.24" class="st39"/>
		</g>
		<g id="group1100-212" transform="translate(190.542,-82.0469)">
			<title>Sheet.1100</title>
			<g id="shape1101-213" transform="translate(-200.014,206.025) rotate(-90.1)">
				<title>Circle.1625</title>
				<path d="M0 206.26 A2.97736 2.97736 0 0 1 5.95 206.26 A2.97736 2.97736 0 0 1 0 206.26 Z" class="st33"/>
			</g>
			<g id="shape1102-215" transform="translate(0.283465,-0.283465)">
				<title>Sheet.1102</title>
				<desc>*</desc>
				<rect x="0" y="200.449" width="10.697" height="8.78739" class="st11"/>
				<text x="4" y="207.54" class="st40">*</text>			</g>
		</g>
		<g id="group1108-218" transform="translate(202.678,-84.5747)">
			<title>Sheet.1108</title>
			<g id="shape1109-219">
				<title>Circle.1481</title>
				<path d="M0 204.83 A4.40136 4.40136 0 1 1 8.8 204.83 A4.40136 4.40136 0 0 1 0 204.83 Z" class="st41"/>
			</g>
			<g id="shape1110-221">
				<title>Pie Slice.1392</title>
				<path d="M4.4 204.83 L1.29 207.95 A4.40136 4.40136 -180 1 0 4.4 200.43 L4.4 204.83 Z" class="st42"/>
			</g>
		</g>
		<g id="group1111-223" transform="translate(202.678,-130.33)">
			<title>Sheet.1111</title>
			<g id="shape1112-224">
				<title>Circle.1481</title>
				<path d="M0 204.83 A4.40136 4.40136 0 1 1 8.8 204.83 A4.40136 4.40136 0 0 1 0 204.83 Z" class="st41"/>
			</g>
			<g id="shape1113-226">
				<title>Pie Slice.1392</title>
				<path d="M4.4 204.83 L4.4 200.43 A4.40136 4.40136 -180 0 0 1.48 208.13 L4.4 204.83 Z" class="st42"/>
			</g>
		</g>
		<g id="shape1115-228" transform="translate(303.567,84.0455) rotate(90)">
			<title>Rounded Rectangle.1776</title>
			<path d="M3.33 209.24 L7.37 209.24 A3.3269 3.3269 -180 0 0 10.7 205.91 L10.7 179.11 A3.3269 3.3269 -180 0 0 7.37 175.79
						 L3.33 175.79 A3.3269 3.3269 -180 0 0 0 179.11 L0 205.91 A3.3269 3.3269 -180 0 0 3.33 209.24 Z"
					class="st43"/>
		</g>
		<g id="shape1116-230" transform="translate(326.811,85.0003) rotate(90)">
			<title>Circle.1777</title>
			<path d="M0 204.84 A4.3937 4.3937 0 0 1 8.79 204.84 A4.3937 4.3937 0 1 1 0 204.84 Z" class="st41"/>
		</g>
		<g id="shape1117-232" transform="translate(315.969,85.0003) rotate(90)">
			<title>Circle.1778</title>
			<path d="M0 204.84 A4.3937 4.3937 0 0 1 8.79 204.84 A4.3937 4.3937 0 1 1 0 204.84 Z" class="st41"/>
		</g>
		<g id="shape1118-234" transform="translate(305.126,85.0003) rotate(90)">
			<title>Circle.1779</title>
			<path d="M0 204.84 A4.3937 4.3937 0 0 1 8.79 204.84 A4.3937 4.3937 0 1 1 0 204.84 Z" class="st41"/>
		</g>
		<g id="shape1119-236" transform="translate(303.567,70.0686) rotate(90)">
			<title>Rounded Rectangle.1784</title>
			<path d="M3.33 209.24 L7.37 209.24 A3.3269 3.3269 -180 0 0 10.7 205.91 L10.7 179.11 A3.3269 3.3269 -180 0 0 7.37 175.79
						 L3.33 175.79 A3.3269 3.3269 -180 0 0 0 179.11 L0 205.91 A3.3269 3.3269 -180 0 0 3.33 209.24 Z"
					class="st43"/>
		</g>
		<g id="shape1120-238" transform="translate(326.811,71.0234) rotate(90)">
			<title>Circle.1785</title>
			<path d="M0 204.84 A4.3937 4.3937 0 0 1 8.79 204.84 A4.3937 4.3937 0 1 1 0 204.84 Z" class="st41"/>
		</g>
		<g id="shape1121-240" transform="translate(315.969,71.0234) rotate(90)">
			<title>Circle.1786</title>
			<path d="M0 204.84 A4.3937 4.3937 0 0 1 8.79 204.84 A4.3937 4.3937 0 1 1 0 204.84 Z" class="st41"/>
		</g>
		<g id="shape1122-242" transform="translate(305.126,71.0234) rotate(90)">
			<title>Circle.1787</title>
			<path d="M0 204.84 A4.3937 4.3937 0 0 1 8.79 204.84 A4.3937 4.3937 0 1 1 0 204.84 Z" class="st41"/>
		</g>
		<g id="group1168-244" transform="translate(156.171,-144.673)">
			<title>Sheet.1168</title>
			<g id="shape1169-245" transform="translate(-203.276,209.596) rotate(-90.1)">
				<title>Circle.1625</title>
				<path d="M0 206.26 A2.97736 2.97736 0 0 1 5.95 206.26 A2.97736 2.97736 0 0 1 0 206.26 Z" class="st33"/>
			</g>
			<g id="shape1170-247" transform="translate(0.936488,-0.916527)">
				<title>Cross.1106</title>
				<path d="M0 207.54 L1.7 207.54 L1.7 209.24 L2.4 209.24 L2.4 207.54 L4.1 207.54 L4.1 206.84 L2.4 206.84 L2.4 205.13
							 L1.7 205.13 L1.7 206.84 L0 206.84 L0 207.54 Z" class="st13"/>
			</g>
		</g>
		<g id="group1172-249" transform="translate(164.768,-141.423)">
			<title>Sheet.1172</title>
			<g id="shape1151-250" transform="translate(0.066574,0)">
				<title>Octagon.1151</title>
				<path d="M8.81 196.78 L3.65 196.78 L0 200.43 L0 205.59 L3.65 209.24 L8.81 209.24 L12.46 205.59 L12.46 200.43 L8.81
							 196.78 Z" class="st44"/>
			</g>
			<g id="shape1141-252" transform="translate(0.925564,-2.70743)">
				<title>Sheet.1141</title>
				<path d="M0 209.24 A23.6492 6.88709 -89.61 0 0 2.92 205.13 A3.54331 3.54331 0 0 1 3.07 204.82 A18.104 4.79292 90
							 0 1 7.28 204.71 A3.54331 3.54331 0 0 1 7.42 204.98 A40.4507 9.01644 -90.02 0 0 10.6 209.12"
						class="st45"/>
			</g>
			<g id="shape1152-255">
				<title>Octagon.1152</title>
				<path d="M8.81 196.78 L3.65 196.78 L0 200.43 L0 205.59 L3.65 209.24 L8.81 209.24 L12.46 205.59 L12.46 200.43 L8.81
							 196.78 Z" class="st46"/>
			</g>
			<g id="shape1153-257" transform="translate(2.31711,-4.36634)">
				<title>Circle.1153</title>
				<path d="M0 208.39 a0.850394 0.850394 0 0 1 1.70079 0 a0.850394 0.850394 0 1 1 -1.70079 0 Z" class="st47"/>
			</g>
			<g id="shape1154-259" transform="translate(5.37724,-8.05138)">
				<title>Circle.1154</title>
				<path d="M0 208.39 a0.850394 0.850394 0 0 1 1.70079 0 a0.850394 0.850394 0 1 1 -1.70079 0 Z" class="st47"/>
			</g>
			<g id="shape1155-261" transform="translate(8.3214,-4.36634)">
				<title>Circle.1155</title>
				<path d="M0 208.39 a0.850394 0.850394 0 0 1 1.70079 0 a0.850394 0.850394 0 1 1 -1.70079 0 Z" class="st47"/>
			</g>
		</g>
		<g id="shape1156-263" transform="translate(138.01,-75.344)">
			<title>Rounded Rectangle.1156</title>
			<path d="M1.24 209.24 L43.17 209.24 A1.23788 1.23788 -180 0 0 44.41 208 L44.41 147.51 A1.23788 1.23788 -180 0 0 43.17
						 146.28 L1.24 146.28 A1.23788 1.23788 -180 0 0 0 147.51 L0 208 A1.23788 1.23788 -180 0 0 1.24 209.24 Z"
					class="st48"/>
		</g>
		<g id="shape1171-265" transform="translate(368.364,71.1892) rotate(90)">
			<title>Sheet.1171</title>
			<path d="M0 209.24 L62.45 209.24" class="st49"/>
		</g>
		<g id="group1164-268" transform="translate(353.528,81.1602) rotate(90.4)">
			<title>Sheet.1164</title>
			<g id="shape1165-269" transform="translate(209.237,180.433) rotate(89.9)">
				<title>Trapezoid.1152</title>
				<path d="M0 209.24 L28.42 209.24 L19.31 198.79 L9.11 198.79 L0 209.24 Z" class="st50"/>
			</g>
			<g id="shape1166-271" transform="translate(137.524,23.104) rotate(40.9855)">
				<title>Sheet.1166</title>
				<path d="M0 209.24 L13.04 209.24" class="st51"/>
			</g>
			<g id="shape1167-274" transform="translate(-137.36,51.428) rotate(-41.1855)">
				<title>Sheet.1167</title>
				<path d="M0 209.24 L12.91 209.24" class="st51"/>
			</g>
		</g>
		<g id="group1072-277" transform="translate(353.557,76.8389) rotate(90.4)">
			<title>Sheet.1072</title>
			<g id="shape1073-278" transform="translate(209.237,180.433) rotate(89.9)">
				<title>Trapezoid.1152</title>
				<g id="shadow1073-279" transform="matrix(0.5,8.67362E-19,-8.67362E-19,0.5,7.08452,98.0068)" class="st52">
					<path d="M0 209.24 L28.42 209.24 L19.31 198.79 L9.11 198.79 L0 209.24 Z" class="st53"/>
				</g>
				<path d="M0 209.24 L28.42 209.24 L19.31 198.79 L9.11 198.79 L0 209.24 Z" class="st50"/>
			</g>
			<g id="shape1074-283" transform="translate(137.524,23.104) rotate(40.9855)">
				<title>Sheet.1074</title>
				<g id="shadow1074-284" transform="matrix(0.5,0,0,0.5,6.26185,101.974)" class="st52">
					<path d="M0 209.24 L13.04 209.24" class="st54"/>
				</g>
				<path d="M0 209.24 L13.04 209.24" class="st51"/>
			</g>
			<g id="shape1075-291" transform="translate(-142.053,55.6607) rotate(-42.916)">
				<title>Sheet.1075</title>
				<g id="shadow1075-292" transform="matrix(0.5,0,0,0.5,6.38154,107.321)" class="st52">
					<path d="M0 209.24 L13.73 209.24" class="st54"/>
				</g>
				<path d="M0 209.24 L13.73 209.24" class="st51"/>
			</g>
		</g>
		<g id="shape1077-299" transform="translate(148.766,-122.416)">
			<title>Sheet.1077</title>
			<desc>FF</desc>
			<rect x="0" y="197.845" width="20" height="11.3915" class="st11"/>
			<text x="5.86" y="206.24" class="st55">FF</text>		</g>
		<g id="shape1136-302" transform="translate(146.664,-98.0255)">
			<title>Octagon.1136</title>
			<path d="M8.81 196.78 L3.65 196.78 L0 200.43 L0 205.59 L3.65 209.24 L8.81 209.24 L12.46 205.59 L12.46 200.43 L8.81 196.78
						 Z" class="st56"/>
		</g>
		<g id="shape1137-304" transform="translate(144.388,-100.302)">
			<title>Octagon.1137</title>
			<path d="M8.81 196.78 L3.65 196.78 L0 200.43 L0 205.59 L3.65 209.24 L8.81 209.24 L12.46 205.59 L12.46 200.43 L8.81 196.78
						 Z" class="st56"/>
		</g>
		<g id="shape1138-306" transform="translate(149.499,-95.1908)">
			<title>Octagon.1138</title>
			<path d="M8.81 196.78 L3.65 196.78 L0 200.43 L0 205.59 L3.65 209.24 L8.81 209.24 L12.46 205.59 L12.46 200.43 L8.81 196.78
						 Z" class="st56"/>
		</g>
		<g id="shape1140-308" transform="translate(152.334,-92.3562)">
			<title>Octagon.1199</title>
			<path d="M8.81 196.78 L3.65 196.78 L0 200.43 L0 205.59 L3.65 209.24 L8.81 209.24 L12.46 205.59 L12.46 200.43 L8.81 196.78
						 Z" class="st44"/>
		</g>
		<g id="shape1144-310" transform="translate(156.021,-92.7006)">
			<title>Rectangle.1144</title>
			<rect x="0" y="199.943" width="1.77422" height="9.29334" class="st57"/>
		</g>
		<g id="group1149-312" transform="translate(161.337,-93.0633)">
			<title>Sheet.1149</title>
			<g id="shape1146-313" transform="translate(-4.3715E-15,-1.07973)">
				<title>Rectangle.1146</title>
				<rect x="0" y="203.997" width="1.77422" height="5.23873" class="st57"/>
			</g>
			<g id="shape1148-315" transform="translate(1.29958,417.195) rotate(180)">
				<title>Right Triangle.1148</title>
				<path d="M0 209.24 L1.3 209.24 L1.3 207.96 L0 209.24 Z" class="st57"/>
			</g>
		</g>
		<g id="group1150-317" transform="translate(153.364,-93.6189)">
			<title>Sheet.1150</title>
			<g id="shape1143-318" transform="translate(2.73531E-14,-0.84353)">
				<title>Rectangle.1143</title>
				<rect x="0" y="206.351" width="1.77422" height="2.88489" class="st57"/>
			</g>
			<g id="shape1147-320" transform="translate(-207.462,209.236) rotate(-90)">
				<title>Right Triangle.1147</title>
				<path d="M0 209.24 L1.3 209.24 L1.3 207.96 L0 209.24 Z" class="st57"/>
			</g>
		</g>
		<g id="shape1142-322" transform="translate(152.334,-92.3562)">
			<title>Octagon.1142</title>
			<path d="M8.81 196.78 L3.65 196.78 L0 200.43 L0 205.59 L3.65 209.24 L8.81 209.24 L12.46 205.59 L12.46 200.43 L8.81 196.78
						 Z" class="st46"/>
		</g>
		<g id="shape1145-324" transform="translate(158.679,-92.7006)">
			<title>Rectangle.1145</title>
			<rect x="0" y="206.351" width="1.77422" height="2.88489" class="st57"/>
		</g>
		<g id="shape1173-326" transform="translate(159.128,-113.895)">
			<title>Sheet.1173</title>
			<path d="M0 209.24 L15.21 209.24" class="st22"/>
		</g>
		<g id="shape1174-329" transform="translate(383.671,95.3409) rotate(90)">
			<title>Sheet.1174</title>
			<path d="M0 209.24 L30.52 209.24" class="st22"/>
		</g>
		<g id="shape1175-332" transform="translate(168.543,-83.3755)">
			<title>Sheet.1175</title>
			<path d="M0 209.24 L5.87 209.24" class="st22"/>
		</g>
		<g id="group1176-335" transform="translate(160.721,-80.4081)">
			<title>Sheet.1176</title>
			<g id="shape1177-336" transform="translate(-203.276,209.596) rotate(-90.1)">
				<title>Circle.1625</title>
				<path d="M0 206.26 A2.97736 2.97736 0 1 1 5.95 206.26 A2.97736 2.97736 0 1 1 0 206.26 Z" class="st33"/>
			</g>
			<g id="shape1178-338" transform="translate(0.936488,-0.916527)">
				<title>Cross.1106</title>
				<path d="M0 207.54 L1.7 207.54 L1.7 209.24 L2.4 209.24 L2.4 207.54 L4.1 207.54 L4.1 206.84 L2.4 206.84 L2.4 205.13
							 L1.7 205.13 L1.7 206.84 L0 206.84 L0 207.54 Z" class="st13"/>
			</g>
		</g>
		<g id="shape1181-340" transform="translate(368.351,134.2) rotate(90)">
			<title>Sheet.1181</title>
			<path d="M0 209.24 L5.9 209.24" class="st49"/>
		</g>
		<g id="shape1183-343" transform="translate(368.403,52.5212) rotate(90)">
			<title>Sheet.1183</title>
			<path d="M0 209.24 L4.73 209.24" class="st49"/>
		</g>
		<g id="shape1185-346" transform="translate(158.703,-69.3912)">
			<title>Sheet.1185</title>
			<path d="M0 209.24 L38.02 209.24" class="st49"/>
		</g>
		<g id="shape1186-349" transform="translate(-12.3849,139.81) rotate(-90)">
			<title>Sheet.1186</title>
			<path d="M0 209.24 L12.93 209.24" class="st22"/>
		</g>
		<g id="group1187-352" transform="translate(190.542,-127.865)">
			<title>Sheet.1187</title>
			<g id="shape1188-353" transform="translate(-200.014,206.025) rotate(-90.1)">
				<title>Circle.1625</title>
				<path d="M0 206.26 A2.97736 2.97736 0 0 1 5.95 206.26 A2.97736 2.97736 0 0 1 0 206.26 Z" class="st33"/>
			</g>
			<g id="shape1189-355" transform="translate(0.283465,-0.283465)">
				<title>Sheet.1189</title>
				<desc>*</desc>
				<rect x="0" y="200.449" width="10.697" height="8.78739" class="st11"/>
				<text x="4" y="207.54" class="st40">*</text>			</g>
		</g>
		<g id="group1190-358" transform="translate(193.621,-108.118)">
			<title>Sheet.1190</title>
			<g id="shape1191-359" transform="translate(-203.276,209.596) rotate(-90.1)">
				<title>Circle.1625</title>
				<path d="M0 206.26 A2.97736 2.97736 0 0 1 5.95 206.26 A2.97736 2.97736 0 0 1 0 206.26 Z" class="st33"/>
			</g>
			<g id="shape1192-361" transform="translate(0.936488,-0.916527)">
				<title>Cross.1106</title>
				<path d="M0 207.54 L1.7 207.54 L1.7 209.24 L2.4 209.24 L2.4 207.54 L4.1 207.54 L4.1 206.84 L2.4 206.84 L2.4 205.13
							 L1.7 205.13 L1.7 206.84 L0 206.84 L0 207.54 Z" class="st13"/>
			</g>
		</g>
		<g id="shape1194-363" transform="translate(406.087,104) rotate(90)">
			<title>Sheet.1194</title>
			<path d="M0 209.24 L10.54 209.24" class="st22"/>
		</g>
		<g id="shape1195-366" transform="translate(85.6463,-133.202)">
			<title>Sheet.1195</title>
			<path d="M0 209.24 L4.95 209.24" class="st58"/>
		</g>
		<g id="shape1197-372" transform="translate(406.087,80.1647) rotate(90)">
			<title>Sheet.1197</title>
			<path d="M0 209.24 L12.17 209.24" class="st22"/>
		</g>
		<g id="shape1198-375" transform="translate(-12.3849,69.3705) rotate(-90)">
			<title>Sheet.1198</title>
			<path d="M0 209.24 L17.15 209.24" class="st22"/>
		</g>
		<g id="shape1199-378" transform="translate(111.558,-157.013)">
			<title>Sheet.1199</title>
			<path d="M0 209.24 L85.42 209.24" class="st22"/>
		</g>
		<g id="shape1200-381" transform="translate(91.599,-140.795)">
			<title>Sheet.1200</title>
			<path d="M0 209.24 L0 206.54 L39.03 206.54 L39.03 209.24" class="st39"/>
		</g>
		<g id="group1204-384" transform="translate(139.377,-73.0355)">
			<title>Sheet.1204</title>
			<g id="shape1201-385" transform="translate(4.75972,0)">
				<title>Circle.1201</title>
				<path d="M0 204.83 A4.40136 4.40136 0 0 1 8.8 204.83 A4.40136 4.40136 0 1 1 0 204.83 Z" class="st60"/>
			</g>
			<g id="shape1202-387" transform="translate(-3.4972E-15,-2.54072)">
				<title>Rectangle.1202</title>
				<rect x="0" y="201.736" width="7.59685" height="7.5" class="st1"/>
			</g>
			<g id="shape1203-389" transform="translate(-44.4478,400.778) rotate(-165)">
				<title>Chevron.1203</title>
				<path d="M0 209.24 L1.86 207.04 L0 204.84 L1.86 207.04 L0 209.24 Z" class="st61"/>
			</g>
		</g>
		<g id="shape1205-391" transform="translate(-97.7945,64.9787) rotate(-90)">
			<title>Sheet.1205</title>
			<path d="M0 209.24 L12.76 209.24" class="st22"/>
		</g>
		<g id="shape1206-394" transform="translate(72.5833,-125.678)">
			<title>Sheet.1206</title>
			<desc>d1</desc>
			<rect x="0" y="192.954" width="19.9866" height="16.282" class="st11"/>
			<text x="4" y="203.8" class="st30">d<tspan dy="-0.279em" class="st31">1 </tspan></text>		</g>
		<g id="shape1207-398" transform="translate(72.5833,-111.701)">
			<title>Sheet.1207</title>
			<desc>d2</desc>
			<rect x="0" y="192.954" width="19.9866" height="16.282" class="st11"/>
			<text x="4" y="203.8" class="st30">d<tspan dy="-0.279em" class="st31">2 </tspan></text>		</g>
		<g id="shape1208-402" transform="translate(94.331,-100.146)">
			<title>Sheet.1208</title>
			<desc>...</desc>
			<rect x="0" y="189.236" width="33.4488" height="20" class="st11"/>
			<text x="12.18" y="202.84" class="st12">...</text>		</g>
		<g id="shape1209-405" transform="translate(303.567,108.401) rotate(90)">
			<title>Rounded Rectangle.1209</title>
			<path d="M3.33 209.24 L7.37 209.24 A3.3269 3.3269 -180 0 0 10.7 205.91 L10.7 179.11 A3.3269 3.3269 -180 0 0 7.37 175.79
						 L3.33 175.79 A3.3269 3.3269 -180 0 0 0 179.11 L0 205.91 A3.3269 3.3269 -180 0 0 3.33 209.24 Z"
					class="st43"/>
		</g>
		<g id="shape1210-407" transform="translate(326.811,109.356) rotate(90)">
			<title>Circle.1210</title>
			<path d="M0 204.84 A4.3937 4.3937 0 0 1 8.79 204.84 A4.3937 4.3937 0 1 1 0 204.84 Z" class="st41"/>
		</g>
		<g id="shape1211-409" transform="translate(315.969,109.356) rotate(90)">
			<title>Circle.1211</title>
			<path d="M0 204.84 A4.3937 4.3937 0 0 1 8.79 204.84 A4.3937 4.3937 0 1 1 0 204.84 Z" class="st41"/>
		</g>
		<g id="shape1212-411" transform="translate(305.126,109.356) rotate(90)">
			<title>Circle.1212</title>
			<path d="M0 204.84 A4.3937 4.3937 0 0 1 8.79 204.84 A4.3937 4.3937 0 1 1 0 204.84 Z" class="st41"/>
		</g>
		<g id="shape1213-413" transform="translate(72.5833,-87.3455)">
			<title>Sheet.1213</title>
			<desc>dn</desc>
			<rect x="0" y="192.954" width="19.9866" height="16.282" class="st11"/>
			<text x="4" y="203.8" class="st30">d<tspan dy="-0.279em" class="st31">n </tspan></text>		</g>
		<g id="shape1214-417" transform="translate(85.6463,-119.596)">
			<title>Sheet.1214</title>
			<path d="M0 209.24 L4.95 209.24" class="st58"/>
		</g>
		<g id="shape1215-422" transform="translate(85.6463,-95.218)">
			<title>Sheet.1215</title>
			<path d="M0 209.24 L4.95 209.24" class="st58"/>
		</g>
		<g id="group1218-427" transform="translate(409.34,-69.9419)">
			<title>Sheet.1218</title>
			<g id="shape1219-428">
				<title>Octagon.1199</title>
				<path d="M8.81 196.78 L3.65 196.78 L0 200.43 L0 205.59 L3.65 209.24 L8.81 209.24 L12.46 205.59 L12.46 200.43 L8.81
							 196.78 Z" class="st16"/>
			</g>
			<g id="shape1220-430" transform="translate(0.528757,-3.44358)">
				<title>Sheet.1220</title>
				<path d="M-0 209.24 A14.163 5.82808 2.38 0 1 11.91 205.59" class="st17"/>
			</g>
			<g id="shape1221-433">
				<title>Octagon.1201</title>
				<path d="M8.81 196.78 L3.65 196.78 L0 200.43 L0 205.59 L3.65 209.24 L8.81 209.24 L12.46 205.59 L12.46 200.43 L8.81
							 196.78 Z" class="st18"/>
			</g>
		</g>
		<g id="shape1223-435" transform="translate(185.002,116.72) rotate(-90.1)">
			<title>Rounded Rectangle.1223</title>
			<path d="M2.08 209.24 L19.75 209.24 A2.07563 2.07563 -180 0 0 21.83 207.16 L21.83 200.82 A2.07563 2.07563 -180 0 0 19.75
						 198.75 L2.08 198.75 A2.07563 2.07563 -180 0 0 -0 200.82 L0 207.16 A2.07563 2.07563 -180 0 0 2.08 209.24
						 Z" class="st19"/>
		</g>
		<g id="shape1224-437" transform="translate(184.014,105.099) rotate(-90.1)">
			<title>Circle.1224</title>
			<path d="M0 204.84 A4.3937 4.3937 0 0 1 8.79 204.84 A4.3937 4.3937 0 1 1 0 204.84 Z" class="st21"/>
		</g>
		<g id="shape1225-439" transform="translate(183.982,115.553) rotate(-90.1)">
			<title>Circle.1225</title>
			<path d="M0 204.84 A4.3937 4.3937 0 0 1 8.79 204.84 A4.3937 4.3937 0 1 1 0 204.84 Z" class="st20"/>
		</g>
		<g id="shape1227-441" transform="translate(598.253,118.887) rotate(90)">
			<title>Sheet.1227</title>
			<path d="M0 209.24 L5.9 209.24" class="st62"/>
		</g>
		<g id="shape1222-447" transform="translate(380.875,-68.3227)">
			<title>Sheet.1222</title>
			<desc>Ʃ</desc>
			<rect x="0" y="193.778" width="16.9077" height="15.458" class="st11"/>
			<text x="5.29" y="205.01" class="st63">Ʃ</text>		</g>
		<g id="shape1229-450" transform="translate(387.653,353.181) rotate(-179.658)">
			<title>Sheet.1229</title>
			<path d="M0 209.24 L15.81 209.24" class="st22"/>
		</g>
		<g id="shape1233-453" transform="translate(523.974,-17.4699) rotate(50)">
			<title>Sheet.1233</title>
			<desc>...</desc>
			<rect x="0" y="189.236" width="33.4488" height="20" class="st11"/>
			<text x="13.32" y="201.94" class="st64">...</text>		</g>
		<g id="shape1234-456" transform="translate(362.925,-85.2248)">
			<title>Sheet.1234</title>
			<desc>Ʃ</desc>
			<rect x="0" y="193.778" width="16.9077" height="15.458" class="st11"/>
			<text x="6.42" y="203.76" class="st65">Ʃ</text>		</g>
		<g id="shape1235-459" transform="translate(210.912,206.837) rotate(-111.251)">
			<title>Sheet.1235</title>
			<path d="M0 209.24 L27.37 209.24" class="st22"/>
		</g>
		<g id="shape1240-462" transform="translate(450.254,-66.601) rotate(-0.1)">
			<title>Circle.1240</title>
			<path d="M0 204.84 A4.3937 4.3937 0 0 1 8.79 204.84 A4.3937 4.3937 0 1 1 0 204.84 Z" class="st66"/>
		</g>
		<g id="shape1241-464" transform="translate(450.254,-76.9947) rotate(-0.1)">
			<title>Circle.1241</title>
			<path d="M0 204.84 A4.3937 4.3937 0 0 1 8.79 204.84 A4.3937 4.3937 0 1 1 0 204.84 Z" class="st66"/>
		</g>
		<g id="shape1237-466" transform="translate(450.254,-56.2073) rotate(-0.1)">
			<title>Circle.1237</title>
			<path d="M0 204.84 A4.3937 4.3937 0 0 1 8.79 204.84 A4.3937 4.3937 0 1 1 0 204.84 Z" class="st21"/>
		</g>
		<g id="shape1247-468" transform="translate(450.254,-87.3884) rotate(-0.1)">
			<title>Circle.1247</title>
			<path d="M0 204.84 A4.3937 4.3937 0 0 1 8.79 204.84 A4.3937 4.3937 0 1 1 0 204.84 Z" class="st66"/>
		</g>
		<g id="group1248-470" transform="translate(671.301,110.219) rotate(90)">
			<title>Sheet.1248</title>
			<g id="group1242-471" transform="translate(-166.434,208.308) rotate(-90)">
				<title>Sheet.1242</title>
				<g id="shape1243-472" transform="translate(209.212,166.359) rotate(89.9)">
					<title>Trapezoid.1152</title>
					<path d="M0 209.24 L42.5 209.24 L28.88 198.79 L13.62 198.79 L0 209.24 Z" class="st67"/>
				</g>
				<g id="shape1244-474" transform="translate(165.975,39.3488) rotate(52.4095)">
					<title>Sheet.1244</title>
					<path d="M0 209.24 L16.65 209.24" class="st68"/>
				</g>
				<g id="shape1245-477" transform="translate(-167.272,83.577) rotate(-53.1557)">
					<title>Sheet.1245</title>
					<path d="M0 209.24 L17.18 209.24" class="st68"/>
				</g>
			</g>
			<g id="shape1246-480" transform="translate(-182.131,213.409) rotate(-90)">
				<title>Sheet.1246</title>
				<desc>FF</desc>
				<rect x="0" y="197.845" width="20" height="11.3915" class="st11"/>
				<text x="5.86" y="206.24" class="st55">FF</text>			</g>
		</g>
		<g id="shape1253-483" transform="translate(595.068,173.973) rotate(115.313)">
			<title>Sheet.1253</title>
			<path d="M0 209.24 L23.2 209.24" class="st22"/>
		</g>
		<g id="shape1262-486" transform="translate(449.319,-106.808)">
			<title>Rounded Rectangle.1262</title>
			<path d="M3.33 209.24 L7.37 209.24 A3.3269 3.3269 -180 0 0 10.7 205.91 L10.7 168.06 A3.3269 3.3269 -180 0 0 7.37 164.73
						 L3.33 164.73 A3.3269 3.3269 -180 0 0 -0 168.06 L0 205.91 A3.3269 3.3269 -180 0 0 3.33 209.24 Z"
					class="st1"/>
		</g>
		<g id="shape1267-488" transform="translate(426.142,-130.334)">
			<title>Sheet.1267</title>
			<path d="M0 209.24 L5.69 209.24" class="st22"/>
		</g>
		<g id="shape1268-491" transform="translate(427.679,-121.188)">
			<title>Sheet.1268</title>
			<desc>Ʃ</desc>
			<rect x="0" y="193.778" width="16.9077" height="15.458" class="st11"/>
			<text x="5.29" y="205.01" class="st63">Ʃ</text>		</g>
		<g id="shape1269-494" transform="translate(440.435,-130.051)">
			<title>Sheet.1269</title>
			<path d="M0 209.24 L6.04 209.24" class="st37"/>
		</g>
		<g id="shape1270-499" transform="translate(449.83,-119.178) rotate(-0.1)">
			<title>Circle.1270</title>
			<path d="M0 204.84 A4.3937 4.3937 0 0 1 8.79 204.84 A4.3937 4.3937 0 1 1 0 204.84 Z" class="st66"/>
		</g>
		<g id="shape1271-501" transform="translate(449.83,-129.571) rotate(-0.1)">
			<title>Circle.1271</title>
			<path d="M0 204.84 A4.3937 4.3937 0 0 1 8.79 204.84 A4.3937 4.3937 0 1 1 0 204.84 Z" class="st66"/>
		</g>
		<g id="shape1272-503" transform="translate(449.83,-108.784) rotate(-0.1)">
			<title>Circle.1272</title>
			<path d="M0 204.84 A4.3937 4.3937 0 0 1 8.79 204.84 A4.3937 4.3937 0 1 1 0 204.84 Z" class="st21"/>
		</g>
		<g id="shape1273-505" transform="translate(449.83,-139.965) rotate(-0.1)">
			<title>Circle.1273</title>
			<path d="M0 204.84 A4.3937 4.3937 0 0 1 8.79 204.84 A4.3937 4.3937 0 1 1 0 204.84 Z" class="st66"/>
		</g>
		<g id="group1274-507" transform="translate(670.878,57.642) rotate(90)">
			<title>Sheet.1274</title>
			<g id="group1275-508" transform="translate(-166.434,208.308) rotate(-90)">
				<title>Sheet.1275</title>
				<g id="shape1276-509" transform="translate(209.212,166.359) rotate(89.9)">
					<title>Trapezoid.1152</title>
					<path d="M0 209.24 L42.5 209.24 L28.88 198.79 L13.62 198.79 L0 209.24 Z" class="st67"/>
				</g>
				<g id="shape1277-511" transform="translate(165.975,39.3488) rotate(52.4095)">
					<title>Sheet.1277</title>
					<path d="M0 209.24 L16.65 209.24" class="st68"/>
				</g>
				<g id="shape1278-514" transform="translate(-167.272,83.577) rotate(-53.1557)">
					<title>Sheet.1278</title>
					<path d="M0 209.24 L17.18 209.24" class="st68"/>
				</g>
			</g>
			<g id="shape1279-517" transform="translate(-182.359,213.006) rotate(-90)">
				<title>Sheet.1279</title>
				<desc>FF</desc>
				<rect x="0" y="197.845" width="20" height="11.3915" class="st11"/>
				<text x="5.86" y="206.24" class="st55">FF</text>			</g>
		</g>
		<g id="shape1280-520" transform="translate(637.577,50.8686) rotate(90)">
			<title>Sheet.1280</title>
			<desc>...</desc>
			<rect x="0" y="189.236" width="33.4488" height="20" class="st11"/>
			<text x="13.32" y="201.94" class="st64">...</text>		</g>
		<g id="shape1281-523" transform="translate(427.679,-141.171)">
			<title>Sheet.1281</title>
			<desc>Ʃ</desc>
			<rect x="0" y="193.778" width="16.9077" height="15.458" class="st11"/>
			<text x="6.42" y="203.76" class="st65">Ʃ</text>		</g>
		<g id="shape1288-526" transform="translate(598.14,139.527) rotate(90)">
			<title>Sheet.1288</title>
			<path d="M0 209.24 L4.42 209.24" class="st22"/>
		</g>
		<g id="shape1292-529" transform="translate(482.295,-103.592)">
			<title>Sheet.1292</title>
			<path d="M0 209.24 L5.67 209.24" class="st22"/>
		</g>
		<g id="shape1294-532" transform="translate(688.834,78.9162) rotate(90)">
			<title>Sheet.1294</title>
			<path d="M0 209.24 L0 206.54 L53.39 206.54 L53.39 209.24" class="st39"/>
		</g>
		<g id="shape1295-535" transform="translate(71.1659,-47.0426)">
			<title>Sheet.1295</title>
			<desc>Word embedding</desc>
			<rect x="0" y="189.236" width="62.3622" height="20" class="st11"/>
			<text x="6.29" y="201.34" class="st69">Word embedding</text>		</g>
		<g id="shape1296-538" transform="translate(320.276,242.584) rotate(117.235)">
			<title>Sheet.1296</title>
			<path d="M0 209.24 L10.84 209.24" class="st70"/>
		</g>
		<g id="shape1297-541" transform="translate(131.463,-47.0426)">
			<title>Sheet.1297</title>
			<desc>Transformer</desc>
			<rect x="0" y="189.236" width="44.4094" height="20" class="st11"/>
			<text x="4" y="201.34" class="st69">Transformer</text>		</g>
		<g id="shape1299-544" transform="translate(174.878,-47.0426)">
			<title>Sheet.1299</title>
			<desc>Weighted sum</desc>
			<rect x="0" y="189.236" width="55.6134" height="20" class="st11"/>
			<text x="4" y="201.34" class="st69">Weighted sum</text>		</g>
		<g id="shape1300-547" transform="translate(363.031,242.584) rotate(117.235)">
			<title>Sheet.1300</title>
			<path d="M0 209.24 L10.84 209.24" class="st70"/>
		</g>
		<g id="shape1301-550" transform="translate(130.518,-154.455)">
			<title>Sheet.1301</title>
			<desc>Positional encoding</desc>
			<rect x="0" y="189.236" width="79.3701" height="20" class="st11"/>
			<text x="4" y="201.34" class="st69">Positional encoding</text>		</g>
		<g id="shape1302-553" transform="translate(368.403,66.0407) rotate(90)">
			<title>Sheet.1302</title>
			<path d="M0 209.24 L4.73 209.24" class="st49"/>
		</g>
		<g id="shape1303-556" transform="translate(505.27,372.978) rotate(180)">
			<title>Sheet.1303</title>
			<path d="M0 209.24 L0 203.54 L55.61 203.54 L55.61 209.24" class="st28"/>
		</g>
		<g id="shape1304-559" transform="translate(449.545,-18.4075)">
			<title>Sheet.1304</title>
			<desc>④ Scoring</desc>
			<rect x="0" y="189.236" width="55.6134" height="20" class="st11"/>
			<text x="7.39" y="201.94" class="st29">④ Scoring</text>		</g>
		<g id="shape1305-562" transform="translate(312.161,-147.402)">
			<title>Sheet.1305</title>
			<desc>d1</desc>
			<rect x="0" y="192.954" width="16.9077" height="16.282" class="st11"/>
			<text x="4" y="203.8" class="st71">d<tspan dy="-0.279em" class="st31">1 </tspan></text>		</g>
		<g id="shape1306-566" transform="translate(354.7,-147.402)">
			<title>Sheet.1306</title>
			<desc>dn</desc>
			<rect x="0" y="192.954" width="19.9866" height="16.282" class="st11"/>
			<text x="4" y="203.8" class="st71">d<tspan dy="-0.279em" class="st31">n </tspan></text>		</g>
		<g id="shape1307-570" transform="translate(299.384,-127.922)">
			<title>Sheet.1307</title>
			<desc>q2</desc>
			<rect x="0" y="192.954" width="16.9077" height="16.282" class="st11"/>
			<text x="4" y="203.8" class="st71">q<tspan dy="-0.279em" class="st31">2</tspan></text>		</g>
		<g id="shape1308-574" transform="translate(299.356,-138.898)">
			<title>Sheet.1308</title>
			<desc>q1</desc>
			<rect x="0" y="192.954" width="16.9077" height="16.282" class="st11"/>
			<text x="4" y="203.8" class="st71">q<tspan dy="-0.279em" class="st31">1</tspan></text>		</g>
		<g id="shape1309-578" transform="translate(334.079,-149.182)">
			<title>Sheet.1309</title>
			<desc>...</desc>
			<rect x="0" y="192.954" width="16.9077" height="16.282" class="st11"/>
			<text x="4" y="202.28" class="st72"><tspan class="st73">...</tspan></text>		</g>
		<g id="shape1311-582" transform="translate(425.461,-75.7148)">
			<title>Sheet.1311</title>
			<path d="M0 209.24 L5.69 209.24" class="st22"/>
		</g>
		<g id="shape1312-585" transform="translate(426.998,-66.5685)">
			<title>Sheet.1312</title>
			<desc>Ʃ</desc>
			<rect x="0" y="193.778" width="16.9077" height="15.458" class="st11"/>
			<text x="5.29" y="205.01" class="st63">Ʃ</text>		</g>
		<g id="shape1313-588" transform="translate(439.754,-75.4314)">
			<title>Sheet.1313</title>
			<path d="M0 209.24 L6.04 209.24" class="st37"/>
		</g>
		<g id="shape1314-593" transform="translate(636.896,105.488) rotate(90)">
			<title>Sheet.1314</title>
			<desc>...</desc>
			<rect x="0" y="189.236" width="33.4488" height="20" class="st11"/>
			<text x="13.32" y="201.94" class="st64">...</text>		</g>
		<g id="shape1315-596" transform="translate(426.998,-86.5512)">
			<title>Sheet.1315</title>
			<desc>Ʃ</desc>
			<rect x="0" y="193.778" width="16.9077" height="15.458" class="st11"/>
			<text x="6.42" y="203.76" class="st65">Ʃ</text>		</g>
		<g id="shape1316-599" transform="translate(490.191,-85.0394)">
			<title>Sheet.1316</title>
			<desc>s</desc>
			<rect x="0" y="192.954" width="12.4553" height="16.282" class="st11"/>
			<text x="4" y="203.8" class="st71">s</text>		</g>
		<g id="group1323-602" transform="translate(408.869,-119.781)">
			<title>Sheet.1323</title>
			<g id="group1322-603" transform="translate(0,-3.67379)">
				<title>Sheet.1322</title>
				<g id="shape1318-604">
					<title>Octagon.1318</title>
					<path d="M8.81 196.78 L3.65 196.78 L0 200.43 L0 205.59 L3.65 209.24 L8.81 209.24 L12.46 205.59 L12.46 200.43
								 L8.81 196.78 Z" class="st16"/>
				</g>
				<g id="shape1261-606" transform="translate(-113.277,29.5854) rotate(-32.8652)">
					<title>Sheet.1261</title>
					<path d="M0 209.24 L12.01 209.24" class="st68"/>
				</g>
				<g id="shape1321-609" transform="translate(2.76259,-8.4383)">
					<title>Circle.1321</title>
					<path d="M0 208.33 a0.907302 0.907302 0 1 1 1.8146 0 a0.907302 0.907302 0 0 1 -1.8146 0 Z" class="st20"/>
				</g>
				<g id="shape1320-611">
					<title>Octagon.1320</title>
					<path d="M8.81 196.78 L3.65 196.78 L0 200.43 L0 205.59 L3.65 209.24 L8.81 209.24 L12.46 205.59 L12.46 200.43
								 L8.81 196.78 Z" class="st18"/>
				</g>
			</g>
			<g id="shape1260-613" transform="translate(1.33012,0)">
				<title>Sheet.1260</title>
				<desc>n</desc>
				<rect x="0" y="192.954" width="19.9866" height="16.282" class="st11"/>
				<text x="4" y="203.8" class="st74">n</text>			</g>
		</g>
	</g>
</svg>
